<?xml version="1.0" encoding="UTF-8"?>
<!DOCTYPE svg PUBLIC "-//W3C//DTD SVG 1.1//EN" "http://www.w3.org/Graphics/SVG/1.1/DTD/svg11.dtd">
<svg xmlns="http://www.w3.org/2000/svg" version="1.1" width="180px" height="180px" style="shape-rendering:geometricPrecision; text-rendering:geometricPrecision; image-rendering:optimizeQuality; fill-rule:evenodd; clip-rule:evenodd" xmlns:xlink="http://www.w3.org/1999/xlink">
<g><path style="opacity:1" fill="#b0b0b0" d="M 27.5,-0.5 C 30.5,-0.5 33.5,-0.5 36.5,-0.5C 36.5,-0.166667 36.5,0.166667 36.5,0.5C 32.8019,0.552413 29.1352,0.885746 25.5,1.5C 26.1667,0.833333 26.8333,0.166667 27.5,-0.5 Z"/></g>
<g><path style="opacity:1" fill="#babbba" d="M 137.5,-0.5 C 137.833,-0.5 138.167,-0.5 138.5,-0.5C 138.5,-0.166667 138.5,0.166667 138.5,0.5C 138.167,0.166667 137.833,-0.166667 137.5,-0.5 Z"/></g>
<g><path style="opacity:1" fill="#0d0c0c" d="M 36.5,0.5 C 40.5711,2.71195 44.5711,5.21195 48.5,8C 53.3687,13.0365 58.3687,17.8698 63.5,22.5C 64.099,24.9345 65.599,26.6012 68,27.5C 71.356,26.7101 74.5226,25.7101 77.5,24.5C 77.8333,24.5 78.1667,24.5 78.5,24.5C 88.9213,24.0687 99.2546,24.7354 109.5,26.5C 112.886,27.0991 114.886,25.7658 115.5,22.5C 120.631,17.8698 125.631,13.0365 130.5,8C 136.146,2.67383 142.813,0.340493 150.5,1C 154.276,2.94739 157.61,5.44739 160.5,8.5C 161.931,13.0114 163.598,17.3447 165.5,21.5C 165.874,29.0521 166.874,36.3855 168.5,43.5C 168.732,51.1957 168.399,58.8623 167.5,66.5C 167.34,68.3545 168.007,69.6879 169.5,70.5C 169.328,71.4916 169.662,72.1583 170.5,72.5C 170.12,74.698 170.787,76.3646 172.5,77.5C 173.39,83.1662 175.057,88.4995 177.5,93.5C 180.629,112.161 177.962,129.828 169.5,146.5C 169.5,146.833 169.5,147.167 169.5,147.5C 168.833,147.5 168.5,147.833 168.5,148.5C 168.167,148.5 167.833,148.5 167.5,148.5C 163.5,151.833 159.833,155.5 156.5,159.5C 154.596,159.738 153.262,160.738 152.5,162.5C 137.868,170.043 122.535,175.376 106.5,178.5C 105.833,178.5 105.5,178.833 105.5,179.5C 94.1667,179.5 82.8333,179.5 71.5,179.5C 71.5,178.833 71.1667,178.5 70.5,178.5C 66.2741,176.044 61.6075,175.044 56.5,175.5C 52.4979,173.39 48.1646,172.057 43.5,171.5C 40.5136,168.556 36.8469,166.889 32.5,166.5C 32.0269,165.094 31.0269,164.427 29.5,164.5C 29.0269,163.094 28.0269,162.427 26.5,162.5C 25.7377,160.738 24.4044,159.738 22.5,159.5C 20.7607,156.757 18.4274,154.757 15.5,153.5C 14.9202,151.251 13.5869,149.585 11.5,148.5C 11.2624,146.596 10.2624,145.262 8.5,144.5C 0.689063,128.679 -1.64427,112.013 1.5,94.5C 1.23219,92.901 1.56552,91.5676 2.5,90.5C 4.67875,84.49 7.17875,78.49 10,72.5C 10.0267,55.7394 11.1933,39.0727 13.5,22.5C 16.0055,14.6549 20.0055,7.65494 25.5,1.5C 29.1352,0.885746 32.8019,0.552413 36.5,0.5 Z M 136.5,1.5 C 136.5,2.16667 136.167,2.5 135.5,2.5C 133.169,2.14069 133.335,1.47402 136,0.5C 136.399,0.728446 136.565,1.06178 136.5,1.5 Z M 47.5,4.5 C 47.1667,4.5 46.8333,4.5 46.5,4.5C 45.5084,4.67158 44.8417,4.33825 44.5,3.5C 45.779,2.28485 46.779,2.61818 47.5,4.5 Z M 47.5,4.5 C 48.2389,4.36899 48.9056,4.53566 49.5,5C 50.7383,5.68999 50.7383,6.18999 49.5,6.5C 48.5084,6.67158 47.8417,6.33825 47.5,5.5C 47.5,5.16667 47.5,4.83333 47.5,4.5 Z M 31.5,17.5 C 33.1667,17.5 34.8333,17.5 36.5,17.5C 36.5,18.1667 36.8333,18.5 37.5,18.5C 37.5,18.8333 37.5,19.1667 37.5,19.5C 38.5,21.8333 40.1667,23.5 42.5,24.5C 42.8333,24.5 43.1667,24.5 43.5,24.5C 43.5,24.8333 43.5,25.1667 43.5,25.5C 43.427,27.0269 44.0937,28.0269 45.5,28.5C 45.427,30.0269 46.0937,31.0269 47.5,31.5C 47.427,33.0269 48.0937,34.0269 49.5,34.5C 49.5,35.1667 49.5,35.8333 49.5,36.5C 49.5,36.8333 49.5,37.1667 49.5,37.5C 49.1667,37.5 48.8333,37.5 48.5,37.5C 47.5084,37.3284 46.8417,37.6618 46.5,38.5C 46.5,38.8333 46.5,39.1667 46.5,39.5C 45.5084,39.3284 44.8417,39.6618 44.5,40.5C 44.1583,41.3382 43.4916,41.6716 42.5,41.5C 41.8333,41.5 41.5,41.8333 41.5,42.5C 40.8333,42.5 40.5,42.8333 40.5,43.5C 40.1667,43.5 39.8333,43.5 39.5,43.5C 38.5084,43.3284 37.8417,43.6618 37.5,44.5C 37.5,44.8333 37.5,45.1667 37.5,45.5C 36.8333,45.5 36.5,45.8333 36.5,46.5C 35.8333,46.5 35.5,46.8333 35.5,47.5C 34.8333,47.5 34.5,47.8333 34.5,48.5C 34.1667,48.5 33.8333,48.5 33.5,48.5C 31.0518,49.3721 28.8851,50.7054 27,52.5C 26.5006,47.1771 26.334,41.8437 26.5,36.5C 26.5,34.5 26.5,32.5 26.5,30.5C 26.2322,28.901 26.5655,27.5676 27.5,26.5C 27.8333,26.5 28.1667,26.5 28.5,26.5C 29.1679,23.7552 30.5012,21.2552 32.5,19C 31.944,18.6174 31.6107,18.1174 31.5,17.5 Z M 102.5,23.5 C 94.5,23.5 86.5,23.5 78.5,23.5C 76.4727,23.6621 74.4727,23.4955 72.5,23C 84.1724,21.0273 95.8391,21.0273 107.5,23C 105.866,23.4935 104.199,23.6602 102.5,23.5 Z M 143.5,17.5 C 145.514,17.3915 147.18,18.0582 148.5,19.5C 148.263,20.791 148.596,21.791 149.5,22.5C 149.833,22.5 150.167,22.5 150.5,22.5C 150.5,23.8333 150.5,25.1667 150.5,26.5C 150.232,28.099 150.566,29.4324 151.5,30.5C 151.833,30.5 152.167,30.5 152.5,30.5C 152.5,32.8333 152.5,35.1667 152.5,37.5C 152.821,43.0262 152.488,48.3595 151.5,53.5C 151.167,53.5 150.833,53.5 150.5,53.5C 150.5,52.8333 150.167,52.5 149.5,52.5C 149.5,51.8333 149.167,51.5 148.5,51.5C 148.5,50.8333 148.167,50.5 147.5,50.5C 147.5,49.8333 147.167,49.5 146.5,49.5C 146.5,48.8333 146.167,48.5 145.5,48.5C 145.306,46.0882 143.973,45.0882 141.5,45.5C 141.5,44.8333 141.167,44.5 140.5,44.5C 140.179,42.9519 139.179,42.2852 137.5,42.5C 137.5,41.8333 137.167,41.5 136.5,41.5C 136.158,40.6618 135.492,40.3284 134.5,40.5C 134.5,39.8333 134.167,39.5 133.5,39.5C 133.158,38.6618 132.492,38.3284 131.5,38.5C 131.5,37.8333 131.167,37.5 130.5,37.5C 129.167,35.8333 129.167,34.1667 130.5,32.5C 131.906,32.0269 132.573,31.0269 132.5,29.5C 134.104,28.713 134.771,27.3797 134.5,25.5C 134.833,25.5 135.167,25.5 135.5,25.5C 137.914,24.0892 139.581,22.0892 140.5,19.5C 142.027,19.573 143.027,18.9063 143.5,17.5 Z M 110.5,65.5 C 112.5,65.5 114.5,65.5 116.5,65.5C 116.5,66.1667 116.833,66.5 117.5,66.5C 117.5,66.8333 117.5,67.1667 117.5,67.5C 117.167,68.8333 116.833,70.1667 116.5,71.5C 116.5,71.8333 116.5,72.1667 116.5,72.5C 115.833,72.5 115.5,72.8333 115.5,73.5C 114.833,73.5 114.5,73.8333 114.5,74.5C 113.508,74.3284 112.842,74.6618 112.5,75.5C 112.158,76.3382 111.492,76.6716 110.5,76.5C 109.508,76.3284 108.842,76.6618 108.5,77.5C 107.5,77.5 106.5,77.5 105.5,77.5C 105.5,77.1667 105.5,76.8333 105.5,76.5C 105.077,75.7354 104.743,74.9021 104.5,74C 105.32,72.1997 105.986,70.3664 106.5,68.5C 108.735,67.7727 110.069,66.7727 110.5,65.5 Z M 63.5,66.5 C 65.5,66.5 67.5,66.5 69.5,66.5C 69.9731,67.9063 70.9731,68.573 72.5,68.5C 72.427,70.0269 73.0937,71.0269 74.5,71.5C 74.5,72.8333 74.5,74.1667 74.5,75.5C 74.5,75.8333 74.5,76.1667 74.5,76.5C 72.1667,76.5 69.8333,76.5 67.5,76.5C 67.5,75.8333 67.1667,75.5 66.5,75.5C 66.1583,74.6618 65.4916,74.3284 64.5,74.5C 64.5,73.8333 64.1667,73.5 63.5,73.5C 63.1667,72.8333 62.8333,72.1667 62.5,71.5C 62.5858,70.5041 62.2524,69.6708 61.5,69C 62.3805,68.2917 63.0472,67.4584 63.5,66.5 Z M 61.5,71.5 C 61.8333,71.5 62.1667,71.5 62.5,71.5C 62.8333,72.1667 63.1667,72.8333 63.5,73.5C 62.8333,73.5 62.1667,73.5 61.5,73.5C 61.5,72.8333 61.5,72.1667 61.5,71.5 Z M 96.5,92.5 C 97.1667,92.5 97.5,92.8333 97.5,93.5C 92.1667,93.5 86.8333,93.5 81.5,93.5C 86.3238,91.618 91.3238,91.2847 96.5,92.5 Z M 87.5,95.5 C 87.7352,94.9033 88.2352,94.5699 89,94.5C 91.6691,95.0161 94.1691,95.6827 96.5,96.5C 93.4299,96.6323 90.4299,96.299 87.5,95.5 Z M 75.5,95.5 C 76.1667,95.5 76.8333,95.5 77.5,95.5C 77.8417,96.3382 78.5084,96.6716 79.5,96.5C 79.5,96.8333 79.5,97.1667 79.5,97.5C 78.5084,97.3284 77.8417,97.6618 77.5,98.5C 76.8333,98.5 76.5,98.8333 76.5,99.5C 76.1667,99.5 75.8333,99.5 75.5,99.5C 74.0937,99.9731 73.427,100.973 73.5,102.5C 72.1667,104.833 72.1667,107.167 73.5,109.5C 73.427,111.027 74.0937,112.027 75.5,112.5C 75.8333,112.5 76.1667,112.5 76.5,112.5C 76.5,112.833 76.5,113.167 76.5,113.5C 76.5,114.833 77.1667,115.5 78.5,115.5C 78.8333,115.5 79.1667,115.5 79.5,115.5C 79.5,116.167 79.8333,116.5 80.5,116.5C 80.8417,117.338 81.5084,117.672 82.5,117.5C 82.5,117.833 82.5,118.167 82.5,118.5C 82.1667,119.167 81.8333,119.833 81.5,120.5C 81.5,120.833 81.5,121.167 81.5,121.5C 81.1583,122.338 80.4916,122.672 79.5,122.5C 78.5084,122.328 77.8417,122.662 77.5,123.5C 74.8333,123.5 72.1667,123.5 69.5,123.5C 69.5,123.167 69.5,122.833 69.5,122.5C 69.1667,121.5 68.5,120.833 67.5,120.5C 65.7354,119.539 63.7354,119.205 61.5,119.5C 61.1667,119.5 60.8333,119.5 60.5,119.5C 59.0937,119.973 58.427,120.973 58.5,122.5C 58.3284,123.492 58.6618,124.158 59.5,124.5C 59.3284,125.492 59.6618,126.158 60.5,126.5C 60.5,127.167 60.8333,127.5 61.5,127.5C 61.5,128.167 61.8333,128.5 62.5,128.5C 62.5,129.167 62.8333,129.5 63.5,129.5C 63.5,130.167 63.8333,130.5 64.5,130.5C 64.8417,131.338 65.5084,131.672 66.5,131.5C 66.5,131.833 66.5,132.167 66.5,132.5C 66.9887,133.995 67.6554,135.329 68.5,136.5C 68.461,139.089 69.461,141.089 71.5,142.5C 71.427,144.027 72.0937,145.027 73.5,145.5C 73.5,146.833 74.1667,147.5 75.5,147.5C 75.8417,148.338 76.5084,148.672 77.5,148.5C 77.5,149.167 77.8333,149.5 78.5,149.5C 78.5,150.167 78.8333,150.5 79.5,150.5C 79.8417,151.338 80.5084,151.672 81.5,151.5C 82.209,152.404 83.209,152.737 84.5,152.5C 87.8333,153.833 91.1667,153.833 94.5,152.5C 95.791,152.737 96.791,152.404 97.5,151.5C 98.4916,151.672 99.1583,151.338 99.5,150.5C 99.8333,150.5 100.167,150.5 100.5,150.5C 101.492,150.672 102.158,150.338 102.5,149.5C 102.5,149.167 102.5,148.833 102.5,148.5C 102.833,148.5 103.167,148.5 103.5,148.5C 105.262,147.738 106.262,146.404 106.5,144.5C 106.5,144.167 106.5,143.833 106.5,143.5C 106.833,143.5 107.167,143.5 107.5,143.5C 108.338,143.158 108.672,142.492 108.5,141.5C 108.5,140.833 108.5,140.167 108.5,139.5C 108.833,139.5 109.167,139.5 109.5,139.5C 110.404,138.791 110.737,137.791 110.5,136.5C 111.345,135.329 112.011,133.995 112.5,132.5C 112.5,132.167 112.5,131.833 112.5,131.5C 113.492,131.672 114.158,131.338 114.5,130.5C 115.167,130.5 115.5,130.167 115.5,129.5C 116.167,129.5 116.5,129.167 116.5,128.5C 117.167,128.5 117.5,128.167 117.5,127.5C 118.167,127.5 118.5,127.167 118.5,126.5C 118.833,126.5 119.167,126.5 119.5,126.5C 122.067,123.905 121.734,121.572 118.5,119.5C 118.167,119.5 117.833,119.5 117.5,119.5C 116.167,118.167 114.833,118.167 113.5,119.5C 112.833,119.5 112.5,119.833 112.5,120.5C 111.833,120.5 111.5,120.833 111.5,121.5C 110.833,121.5 110.5,121.833 110.5,122.5C 109.833,122.5 109.5,122.833 109.5,123.5C 106.833,123.5 104.167,123.5 101.5,123.5C 100.791,122.596 99.791,122.263 98.5,122.5C 98.1583,121.662 97.4916,121.328 96.5,121.5C 96.5,121.167 96.5,120.833 96.5,120.5C 96.1667,119.833 95.8333,119.167 95.5,118.5C 95.5,118.167 95.5,117.833 95.5,117.5C 96.4916,117.672 97.1583,117.338 97.5,116.5C 98.1667,116.5 98.5,116.167 98.5,115.5C 99.4916,115.672 100.158,115.338 100.5,114.5C 100.833,114.5 101.167,114.5 101.5,114.5C 102.906,114.027 103.573,113.027 103.5,111.5C 105.533,110.102 106.533,108.102 106.5,105.5C 106.66,103.645 105.993,102.312 104.5,101.5C 104.167,99.1667 102.833,97.8333 100.5,97.5C 100.167,97.5 99.8333,97.5 99.5,97.5C 99.5,97.1667 99.5,96.8333 99.5,96.5C 100.167,96.5 100.5,96.1667 100.5,95.5C 101.5,95.5 102.5,95.5 103.5,95.5C 103.842,96.3382 104.508,96.6716 105.5,96.5C 105.842,97.3382 106.508,97.6716 107.5,97.5C 107.5,98.1667 107.833,98.5 108.5,98.5C 109.167,98.5 109.833,98.5 110.5,98.5C 110.5,98.8333 110.5,99.1667 110.5,99.5C 110.5,100.167 110.833,100.5 111.5,100.5C 111.842,101.338 112.508,101.672 113.5,101.5C 113.5,102.167 113.833,102.5 114.5,102.5C 114.5,103.167 114.833,103.5 115.5,103.5C 115.842,104.338 116.508,104.672 117.5,104.5C 117.842,105.338 118.508,105.672 119.5,105.5C 121.167,106.833 122.833,106.833 124.5,105.5C 125.791,105.737 126.791,105.404 127.5,104.5C 128.492,104.672 129.158,104.338 129.5,103.5C 130.492,103.672 131.158,103.338 131.5,102.5C 132.492,102.672 133.158,102.338 133.5,101.5C 134.492,101.672 135.158,101.338 135.5,100.5C 136.492,100.672 137.158,100.338 137.5,99.5C 138.492,99.6716 139.158,99.3382 139.5,98.5C 140.791,98.7373 141.791,98.404 142.5,97.5C 146.167,97.5 149.833,97.5 153.5,97.5C 154.209,98.404 155.209,98.7373 156.5,98.5C 156.842,99.3382 157.508,99.6716 158.5,99.5C 158.842,100.338 159.508,100.672 160.5,100.5C 160.842,101.338 161.508,101.672 162.5,101.5C 162.5,102.167 162.833,102.5 163.5,102.5C 163.842,103.338 164.508,103.672 165.5,103.5C 165.5,104.167 165.833,104.5 166.5,104.5C 166.5,105.167 166.833,105.5 167.5,105.5C 167.5,106.167 167.833,106.5 168.5,106.5C 168.5,106.833 168.5,107.167 168.5,107.5C 169.383,112.103 169.717,116.77 169.5,121.5C 169.5,124.5 169.5,127.5 169.5,130.5C 168.732,129.737 168.232,128.737 168,127.5C 166.154,131.855 164.321,136.188 162.5,140.5C 162.5,140.833 162.5,141.167 162.5,141.5C 162.167,141.5 161.833,141.5 161.5,141.5C 159.738,142.262 158.738,143.596 158.5,145.5C 158.5,145.833 158.5,146.167 158.5,146.5C 157.833,146.5 157.5,146.833 157.5,147.5C 156.833,147.5 156.5,147.833 156.5,148.5C 155.833,148.5 155.5,148.833 155.5,149.5C 154.833,149.5 154.5,149.833 154.5,150.5C 153.833,150.5 153.5,150.833 153.5,151.5C 152.508,151.328 151.842,151.662 151.5,152.5C 150.833,152.5 150.5,152.833 150.5,153.5C 150.167,153.5 149.833,153.5 149.5,153.5C 148.508,153.328 147.842,153.662 147.5,154.5C 147.5,154.833 147.5,155.167 147.5,155.5C 146.508,155.328 145.842,155.662 145.5,156.5C 144.833,156.5 144.5,156.833 144.5,157.5C 143.508,157.328 142.842,157.662 142.5,158.5C 141.508,158.328 140.842,158.662 140.5,159.5C 139.508,159.328 138.842,159.662 138.5,160.5C 137.508,160.328 136.842,160.662 136.5,161.5C 135.508,161.328 134.842,161.662 134.5,162.5C 133.209,162.263 132.209,162.596 131.5,163.5C 130.22,164.931 128.553,165.598 126.5,165.5C 124.901,165.232 123.568,165.566 122.5,166.5C 121.209,166.263 120.209,166.596 119.5,167.5C 117.585,167.216 115.919,167.549 114.5,168.5C 112.833,169.167 111.167,169.833 109.5,170.5C 106.167,170.5 102.833,170.5 99.5,170.5C 92.5,170.5 85.5,170.5 78.5,170.5C 76.0521,169.527 73.3854,169.194 70.5,169.5C 69.0813,168.549 67.4147,168.216 65.5,168.5C 64.0813,167.549 62.4147,167.216 60.5,167.5C 59.4324,166.566 58.099,166.232 56.5,166.5C 55.4324,165.566 54.099,165.232 52.5,165.5C 51.791,164.596 50.791,164.263 49.5,164.5C 48.791,163.596 47.791,163.263 46.5,163.5C 46.1583,162.662 45.4916,162.328 44.5,162.5C 43.791,161.596 42.791,161.263 41.5,161.5C 41.1583,160.662 40.4916,160.328 39.5,160.5C 39.1583,159.662 38.4916,159.328 37.5,159.5C 37.1583,158.662 36.4916,158.328 35.5,158.5C 35.5,157.833 35.1667,157.5 34.5,157.5C 34.1583,156.662 33.4916,156.328 32.5,156.5C 32.5,156.167 32.5,155.833 32.5,155.5C 32.1583,154.662 31.4916,154.328 30.5,154.5C 30.1667,154.5 29.8333,154.5 29.5,154.5C 29.5,154.167 29.5,153.833 29.5,153.5C 29.0269,152.094 28.0269,151.427 26.5,151.5C 26.1667,151.5 25.8333,151.5 25.5,151.5C 25.5,150.833 25.1667,150.5 24.5,150.5C 24.5,149.833 24.1667,149.5 23.5,149.5C 23.5,148.833 23.1667,148.5 22.5,148.5C 22.5,147.833 22.1667,147.5 21.5,147.5C 21.5,146.833 21.1667,146.5 20.5,146.5C 20.5,145.833 20.1667,145.5 19.5,145.5C 19.5,144.833 19.1667,144.5 18.5,144.5C 18.5,144.167 18.5,143.833 18.5,143.5C 18.573,141.973 17.9063,140.973 16.5,140.5C 16.573,138.973 15.9063,137.973 14.5,137.5C 14.6716,136.508 14.3382,135.842 13.5,135.5C 12.7128,131.147 11.3795,128.48 9.5,127.5C 9.5,126.167 9.5,124.833 9.5,123.5C 9.66409,120.813 9.49742,118.146 9,115.5C 8.81382,118.036 8.31382,120.369 7.5,122.5C 7.52751,118.47 7.19418,114.803 6.5,111.5C 8.17876,111.715 9.17876,111.048 9.5,109.5C 9.5,109.167 9.5,108.833 9.5,108.5C 10.1667,108.5 10.5,108.167 10.5,107.5C 11.1667,107.5 11.5,107.167 11.5,106.5C 12.1667,106.5 12.5,106.167 12.5,105.5C 13.1667,105.5 13.5,105.167 13.5,104.5C 14.1667,104.5 14.5,104.167 14.5,103.5C 15.1667,103.5 15.5,103.167 15.5,102.5C 16.4916,102.672 17.1583,102.338 17.5,101.5C 18.1667,101.5 18.5,101.167 18.5,100.5C 19.4916,100.672 20.1583,100.338 20.5,99.5C 21.4916,99.6716 22.1583,99.3382 22.5,98.5C 24.099,98.7678 25.4324,98.4345 26.5,97.5C 29.5,97.5 32.5,97.5 35.5,97.5C 36.5676,98.4345 37.901,98.7678 39.5,98.5C 39.8417,99.3382 40.5084,99.6716 41.5,99.5C 41.8417,100.338 42.5084,100.672 43.5,100.5C 43.8417,101.338 44.5084,101.672 45.5,101.5C 45.8417,102.338 46.5084,102.672 47.5,102.5C 47.5,103.167 47.8333,103.5 48.5,103.5C 50.5529,103.402 52.2196,104.069 53.5,105.5C 55.5,106.833 57.5,106.833 59.5,105.5C 60.4916,105.672 61.1583,105.338 61.5,104.5C 62.1667,104.5 62.5,104.167 62.5,103.5C 63.4916,103.672 64.1583,103.338 64.5,102.5C 65.1667,102.5 65.5,102.167 65.5,101.5C 66.1667,101.5 66.5,101.167 66.5,100.5C 67.4916,100.672 68.1583,100.338 68.5,99.5C 69.1667,99.5 69.5,99.1667 69.5,98.5C 70.4916,98.6716 71.1583,98.3382 71.5,97.5C 72.4916,97.6716 73.1583,97.3382 73.5,96.5C 73.8417,95.6618 74.5084,95.3284 75.5,95.5 Z M 84.5,130.5 C 87.8333,130.5 91.1667,130.5 94.5,130.5C 94.8417,131.338 95.5084,131.672 96.5,131.5C 96.8417,132.338 97.5084,132.672 98.5,132.5C 98.5,132.833 98.5,133.167 98.5,133.5C 98.6107,134.117 98.944,134.617 99.5,135C 98.4178,136.33 97.7512,137.83 97.5,139.5C 97.5,139.833 97.5,140.167 97.5,140.5C 96.8333,140.5 96.5,140.833 96.5,141.5C 95.8333,141.5 95.5,141.833 95.5,142.5C 94.209,142.263 93.209,142.596 92.5,143.5C 90.8333,143.5 89.1667,143.5 87.5,143.5C 86.791,142.596 85.791,142.263 84.5,142.5C 84.1583,141.662 83.4916,141.328 82.5,141.5C 82.5,140.833 82.1667,140.5 81.5,140.5C 81.5,140.167 81.5,139.833 81.5,139.5C 81.2488,137.83 80.5822,136.33 79.5,135C 80.056,134.617 80.3893,134.117 80.5,133.5C 80.5,133.167 80.5,132.833 80.5,132.5C 81.4916,132.672 82.1583,132.338 82.5,131.5C 83.4916,131.672 84.1583,131.338 84.5,130.5 Z"/></g>
<g><path style="opacity:1" fill="#a6a7a7" d="M 141.5,-0.5 C 144.833,-0.5 148.167,-0.5 151.5,-0.5C 154.725,1.21311 157.559,3.54644 160,6.5C 161.625,5.58807 162.459,6.25474 162.5,8.5C 162.167,8.5 161.833,8.5 161.5,8.5C 161.167,7.16667 160.833,7.16667 160.5,8.5C 157.61,5.44739 154.276,2.94739 150.5,1C 142.813,0.340493 136.146,2.67383 130.5,8C 125.631,13.0365 120.631,17.8698 115.5,22.5C 115.167,21.1667 114.833,21.1667 114.5,22.5C 113.833,22.5 113.5,22.8333 113.5,23.5C 112.441,21.9301 112.941,20.5968 115,19.5C 115.333,19.8333 115.667,20.1667 116,20.5C 122.096,13.898 128.596,7.89798 135.5,2.5C 136.167,2.5 136.5,2.16667 136.5,1.5C 137.492,1.67158 138.158,1.33825 138.5,0.5C 139.791,0.737305 140.791,0.403972 141.5,-0.5 Z"/></g>
<g><path style="opacity:1" fill="#bbbaba" d="M 36.5,0.5 C 39.3798,0.940238 42.0465,1.94024 44.5,3.5C 44.8417,4.33825 45.5084,4.67158 46.5,4.5C 46.5,5.16667 46.8333,5.5 47.5,5.5C 47.8417,6.33825 48.5084,6.67158 49.5,6.5C 54.1416,12.3375 59.3082,17.0042 65,20.5C 65.6917,21.4368 65.525,22.1034 64.5,22.5C 64.1667,21.1667 63.8333,21.1667 63.5,22.5C 58.3687,17.8698 53.3687,13.0365 48.5,8C 44.5711,5.21195 40.5711,2.71195 36.5,0.5 Z"/></g>
<g><path style="opacity:1" fill="#9d9d9d" d="M 25.5,1.5 C 20.0055,7.65494 16.0055,14.6549 13.5,22.5C 12.5759,15.7645 14.4092,9.7645 19,4.5C 19.3333,4.83333 19.6667,5.16667 20,5.5C 21.451,3.53594 23.2843,2.20261 25.5,1.5 Z"/></g>
<g><path style="opacity:1" fill="#b9b9b9" d="M 160.5,8.5 C 160.833,8.5 161.167,8.5 161.5,8.5C 161.833,9.83333 162.167,9.83333 162.5,8.5C 166.174,12.1942 167.174,16.5275 165.5,21.5C 163.598,17.3447 161.931,13.0114 160.5,8.5 Z"/></g>
<g><path style="opacity:1" fill="#f4c780" d="M 40.5,10.5 C 40.3893,11.1174 40.056,11.6174 39.5,12C 41.3047,15.1367 43.9714,17.1367 47.5,18C 49.6937,20.1937 51.8604,22.3604 54,24.5C 53.8877,26.1783 53.3877,27.845 52.5,29.5C 53.1887,31.3527 54.522,32.5193 56.5,33C 54.8382,37.67 51.5049,40.17 46.5,40.5C 46.5,40.1667 46.5,39.8333 46.5,39.5C 47.8333,39.1667 47.8333,38.8333 46.5,38.5C 46.8417,37.6618 47.5084,37.3284 48.5,37.5C 48.8333,38.8333 49.1667,38.8333 49.5,37.5C 50.1667,37.5 50.8333,37.5 51.5,37.5C 53.0156,34.9196 52.3489,32.9196 49.5,31.5C 49.1667,31.5 48.8333,31.5 48.5,31.5C 48.1667,30.1667 47.8333,30.1667 47.5,31.5C 46.0937,31.0269 45.427,30.0269 45.5,28.5C 44.0937,28.0269 43.427,27.0269 43.5,25.5C 44.8333,25.1667 44.8333,24.8333 43.5,24.5C 43.1667,23.1667 42.8333,23.1667 42.5,24.5C 40.1667,23.5 38.5,21.8333 37.5,19.5C 40.1667,19.1667 40.1667,18.8333 37.5,18.5C 36.8333,18.5 36.5,18.1667 36.5,17.5C 35.3409,15.6231 33.6742,15.1231 31.5,16C 30.2617,16.69 30.2617,17.19 31.5,17.5C 31.6107,18.1174 31.944,18.6174 32.5,19C 30.5012,21.2552 29.1679,23.7552 28.5,26.5C 28.1667,22.5 27.8333,22.5 27.5,26.5C 26.5655,27.5676 26.2322,28.901 26.5,30.5C 26.1667,30.5 25.8333,30.5 25.5,30.5C 25.6633,28.1432 25.4966,25.8098 25,23.5C 24.6667,23.8333 24.3333,24.1667 24,24.5C 23.8784,22.563 23.045,21.2297 21.5,20.5C 22.0239,15.6191 24.0239,11.4524 27.5,8C 32.5153,5.61236 36.8487,6.44569 40.5,10.5 Z"/></g>
<g><path style="opacity:1" fill="#c5c5c3" d="M 114.5,22.5 C 114.833,22.5 115.167,22.5 115.5,22.5C 114.886,25.7658 112.886,27.0991 109.5,26.5C 99.2546,24.7354 88.9213,24.0687 78.5,24.5C 78.5,24.1667 78.5,23.8333 78.5,23.5C 86.5,23.5 94.5,23.5 102.5,23.5C 104.792,24.4665 107.292,25.1331 110,25.5C 111.699,25.6134 112.866,24.9468 113.5,23.5C 114.167,23.5 114.5,23.1667 114.5,22.5 Z"/></g>
<g><path style="opacity:1" fill="#7e7e7e" d="M 167.5,25.5 C 167.343,24.1266 167.51,22.7932 168,21.5C 168.765,23.0657 168.598,24.3991 167.5,25.5 Z"/></g>
<g><path style="opacity:1" fill="#b2b3b2" d="M 63.5,22.5 C 63.8333,22.5 64.1667,22.5 64.5,22.5C 65.4577,23.9616 66.6244,25.2949 68,26.5C 70.9973,25.1336 74.164,24.467 77.5,24.5C 74.5226,25.7101 71.356,26.7101 68,27.5C 65.599,26.6012 64.099,24.9345 63.5,22.5 Z"/></g>
<g><path style="opacity:1" fill="#7b7b7b" d="M 165.5,21.5 C 166.167,22.8333 166.833,24.1667 167.5,25.5C 167.205,27.7354 167.539,29.7354 168.5,31.5C 168.5,33.8333 168.5,36.1667 168.5,38.5C 168.5,40.1667 168.5,41.8333 168.5,43.5C 166.874,36.3855 165.874,29.0521 165.5,21.5 Z"/></g>
<g><path style="opacity:1" fill="#f0ba6a" d="M 40.5,10.5 C 49.4575,16.1241 56.7908,23.4575 62.5,32.5C 63.3333,32.8333 64.1667,33.1667 65,33.5C 77.5241,30.5009 90.0241,29.8342 102.5,31.5C 94.4931,31.3336 86.4931,31.5003 78.5,32C 86.3284,33.7932 85.9951,34.7932 77.5,35C 78.9202,36.53 79.9202,38.3633 80.5,40.5C 81.8139,39.6872 82.9805,38.6872 84,37.5C 85.3139,38.3128 86.4805,39.3128 87.5,40.5C 90.3264,39.1294 91.8264,40.1294 92,43.5C 92.49,42.2068 92.6567,40.8734 92.5,39.5C 93.552,39.3505 94.552,39.5172 95.5,40C 94.0439,40.4226 93.5439,41.2559 94,42.5C 94.7175,41.5494 95.5509,41.3828 96.5,42C 95.6198,43.3561 95.2865,44.8561 95.5,46.5C 98.5983,46.4125 98.9316,46.9125 96.5,48C 97.3279,48.9147 98.3279,49.5814 99.5,50C 96.9357,51.8508 96.9357,53.6841 99.5,55.5C 98.3315,57.2174 96.6648,57.8841 94.5,57.5C 94.2983,62.1445 96.2983,63.9778 100.5,63C 101.925,64.7141 101.592,66.0475 99.5,67C 100.693,68.0946 102.027,68.928 103.5,69.5C 103.833,72.1667 104.167,72.1667 104.5,69.5C 105.167,69.5 105.5,69.1667 105.5,68.5C 105.833,68.5 106.167,68.5 106.5,68.5C 105.986,70.3664 105.32,72.1997 104.5,74C 104.743,74.9021 105.077,75.7354 105.5,76.5C 104.508,76.3284 103.842,76.6618 103.5,77.5C 102.253,73.9236 100.42,71.2569 98,69.5C 96.6371,71.7843 95.1371,71.951 93.5,70C 94.624,69.7508 95.624,69.2508 96.5,68.5C 96.1543,67.3044 95.6543,67.3044 95,68.5C 94.9512,65.584 93.7845,64.584 91.5,65.5C 89.7295,64.9646 89.3961,64.1313 90.5,63C 88.5,62.6667 86.5,62.3333 84.5,62C 87.6031,58.1962 86.9364,56.8629 82.5,58C 82.8333,57.6667 83.1667,57.3333 83.5,57C 80.4386,54.2583 77.6052,54.0917 75,56.5C 73.7387,56.2409 72.7387,55.5742 72,54.5C 70.1733,55.6587 68.5067,56.992 67,58.5C 66.5488,56.0712 65.7155,55.9045 64.5,58C 67.0959,59.7972 66.7626,61.1305 63.5,62C 65.3817,62.1981 67.0484,62.6981 68.5,63.5C 65.5,63.5 62.5,63.5 59.5,63.5C 59.5,66.1667 59.5,68.8333 59.5,71.5C 58.71,70.3915 58.21,69.0581 58,67.5C 55.6752,67.128 53.5086,65.7947 51.5,63.5C 52.6613,61.7763 52.4947,60.1096 51,58.5C 50.2588,59.6405 49.4255,59.6405 48.5,58.5C 47.2578,56.2672 45.9245,54.1005 44.5,52C 45.8412,50.7052 47.1745,50.2052 48.5,50.5C 46.0197,49.5846 45.3531,48.0846 46.5,46C 45.6683,45.3123 45.0016,45.479 44.5,46.5C 43.9598,47.7481 43.2931,48.9148 42.5,50C 42.8333,50.3333 43.1667,50.6667 43.5,51C 41.1165,52.4096 39.4498,54.4096 38.5,57C 37.369,56.8915 36.369,56.3915 35.5,55.5C 33.2345,57.0672 31.9012,56.4005 31.5,53.5C 34.8062,50.8605 37.8062,47.8605 40.5,44.5C 40.5,44.1667 40.5,43.8333 40.5,43.5C 41.1667,43.5 41.5,43.1667 41.5,42.5C 42.1667,42.5 42.5,42.1667 42.5,41.5C 43.4916,41.6716 44.1583,41.3382 44.5,40.5C 45.1667,40.5 45.8333,40.5 46.5,40.5C 51.5049,40.17 54.8382,37.67 56.5,33C 54.522,32.5193 53.1887,31.3527 52.5,29.5C 53.3877,27.845 53.8877,26.1783 54,24.5C 51.8604,22.3604 49.6937,20.1937 47.5,18C 43.9714,17.1367 41.3047,15.1367 39.5,12C 40.056,11.6174 40.3893,11.1174 40.5,10.5 Z"/></g>
<g><path style="opacity:1" fill="#faedd9" d="M 47.5,31.5 C 47.8333,31.5 48.1667,31.5 48.5,31.5C 48.8333,32.8333 49.1667,32.8333 49.5,31.5C 52.3489,32.9196 53.0156,34.9196 51.5,37.5C 51.1583,36.6618 50.4916,36.3284 49.5,36.5C 49.5,35.8333 49.5,35.1667 49.5,34.5C 48.0937,34.0269 47.427,33.0269 47.5,31.5 Z"/></g>
<g><path style="opacity:1" fill="#f2c06c" d="M 172.5,108.5 C 171.833,108.167 171.167,107.833 170.5,107.5C 170.167,107.5 169.833,107.5 169.5,107.5C 169.5,106.833 169.167,106.5 168.5,106.5C 167.833,106.5 167.5,106.167 167.5,105.5C 166.833,105.5 166.5,105.167 166.5,104.5C 165.833,104.5 165.5,104.167 165.5,103.5C 165.158,102.662 164.492,102.328 163.5,102.5C 162.833,102.5 162.5,102.167 162.5,101.5C 162.158,100.662 161.492,100.328 160.5,100.5C 160.158,99.6618 159.492,99.3284 158.5,99.5C 158.158,98.6618 157.492,98.3284 156.5,98.5C 155.791,97.596 154.791,97.2627 153.5,97.5C 149.833,96.1667 146.167,96.1667 142.5,97.5C 141.5,97.5 140.5,97.5 139.5,97.5C 134.717,99.0388 130.05,100.872 125.5,103C 122.854,103.497 120.187,103.664 117.5,103.5C 116.833,103.5 116.167,103.5 115.5,103.5C 114.833,103.5 114.5,103.167 114.5,102.5C 113.833,102.5 113.5,102.167 113.5,101.5C 113.158,100.662 112.492,100.328 111.5,100.5C 110.833,100.5 110.5,100.167 110.5,99.5C 110.5,99.1667 110.5,98.8333 110.5,98.5C 111.959,98.5674 113.292,98.2341 114.5,97.5C 124.373,101.459 129.207,98.1255 129,87.5C 127.242,85.2345 125.075,83.5678 122.5,82.5C 121.737,81.7321 120.737,81.2321 119.5,81C 120.5,80.6667 121.5,80.3333 122.5,80C 121.062,79.7811 119.729,79.2811 118.5,78.5C 120.04,77.4679 120.54,76.1346 120,74.5C 118.938,76.7946 117.438,77.4612 115.5,76.5C 119.171,73.707 120.338,70.0403 119,65.5C 118.329,64.7476 117.496,64.4142 116.5,64.5C 112.024,62.5182 108.357,63.5182 105.5,67.5C 105.5,67.8333 105.5,68.1667 105.5,68.5C 104.833,68.5 104.5,68.8333 104.5,69.5C 104.167,69.5 103.833,69.5 103.5,69.5C 102.027,68.928 100.693,68.0946 99.5,67C 101.592,66.0475 101.925,64.7141 100.5,63C 96.2983,63.9778 94.2983,62.1445 94.5,57.5C 96.6648,57.8841 98.3315,57.2174 99.5,55.5C 96.9357,53.6841 96.9357,51.8508 99.5,50C 98.3279,49.5814 97.3279,48.9147 96.5,48C 98.9316,46.9125 98.5983,46.4125 95.5,46.5C 95.2865,44.8561 95.6198,43.3561 96.5,42C 95.5509,41.3828 94.7175,41.5494 94,42.5C 93.5439,41.2559 94.0439,40.4226 95.5,40C 94.552,39.5172 93.552,39.3505 92.5,39.5C 92.6567,40.8734 92.49,42.2068 92,43.5C 91.8264,40.1294 90.3264,39.1294 87.5,40.5C 86.4805,39.3128 85.3139,38.3128 84,37.5C 82.9805,38.6872 81.8139,39.6872 80.5,40.5C 79.9202,38.3633 78.9202,36.53 77.5,35C 85.9951,34.7932 86.3284,33.7932 78.5,32C 86.4931,31.5003 94.4931,31.3336 102.5,31.5C 106.237,31.7445 109.903,32.4112 113.5,33.5C 119.851,26.6456 126.517,19.8122 133.5,13C 144.59,2.7307 152.756,4.56403 158,18.5C 162.432,34.7619 163.599,51.2619 161.5,68C 167.898,80.7571 171.564,94.2571 172.5,108.5 Z M 143.5,17.5 C 145.514,17.3915 147.18,18.0582 148.5,19.5C 148.263,20.791 148.596,21.791 149.5,22.5C 149.833,22.5 150.167,22.5 150.5,22.5C 150.5,23.8333 150.5,25.1667 150.5,26.5C 150.232,28.099 150.566,29.4324 151.5,30.5C 151.833,30.5 152.167,30.5 152.5,30.5C 152.5,32.8333 152.5,35.1667 152.5,37.5C 152.821,43.0262 152.488,48.3595 151.5,53.5C 151.167,53.5 150.833,53.5 150.5,53.5C 150.5,52.8333 150.167,52.5 149.5,52.5C 149.5,51.8333 149.167,51.5 148.5,51.5C 148.5,50.8333 148.167,50.5 147.5,50.5C 147.5,49.8333 147.167,49.5 146.5,49.5C 146.5,48.8333 146.167,48.5 145.5,48.5C 145.306,46.0882 143.973,45.0882 141.5,45.5C 141.5,44.8333 141.167,44.5 140.5,44.5C 140.179,42.9519 139.179,42.2852 137.5,42.5C 137.5,41.8333 137.167,41.5 136.5,41.5C 136.158,40.6618 135.492,40.3284 134.5,40.5C 134.5,39.8333 134.167,39.5 133.5,39.5C 133.158,38.6618 132.492,38.3284 131.5,38.5C 131.5,37.8333 131.167,37.5 130.5,37.5C 129.167,35.8333 129.167,34.1667 130.5,32.5C 131.906,32.0269 132.573,31.0269 132.5,29.5C 134.104,28.713 134.771,27.3797 134.5,25.5C 134.833,25.5 135.167,25.5 135.5,25.5C 137.914,24.0892 139.581,22.0892 140.5,19.5C 142.027,19.573 143.027,18.9063 143.5,17.5 Z"/></g>
<g><path style="opacity:1" fill="#fadec5" d="M 139.5,19.5 C 139.833,19.5 140.167,19.5 140.5,19.5C 139.581,22.0892 137.914,24.0892 135.5,25.5C 135.167,24.1667 134.833,24.1667 134.5,25.5C 133.833,25.5 133.5,25.8333 133.5,26.5C 133.167,26.5 132.833,26.5 132.5,26.5C 132.738,24.5956 133.738,23.2623 135.5,22.5C 135.833,21.5 136.5,20.8333 137.5,20.5C 137.833,21.8333 138.167,21.8333 138.5,20.5C 139.167,20.5 139.5,20.1667 139.5,19.5 Z"/></g>
<g><path style="opacity:1" fill="#ffa66f" d="M 141.5,17.5 C 142.167,17.5 142.833,17.5 143.5,17.5C 143.027,18.9063 142.027,19.573 140.5,19.5C 140.5,19.1667 140.5,18.8333 140.5,18.5C 141.167,18.5 141.5,18.1667 141.5,17.5 Z"/></g>
<g><path style="opacity:1" fill="#f9e8c1" d="M 143.5,17.5 C 143.5,17.1667 143.5,16.8333 143.5,16.5C 144.833,16.5 146.167,16.5 147.5,16.5C 147.833,17.8333 148.167,17.8333 148.5,16.5C 150.335,17.1223 151.502,18.4556 152,20.5C 155.264,31.9513 156.264,43.6179 155,55.5C 152.878,58.1835 151.378,57.8501 150.5,54.5C 151.167,54.5 151.5,54.1667 151.5,53.5C 152.488,48.3595 152.821,43.0262 152.5,37.5C 153.833,35.1667 153.833,32.8333 152.5,30.5C 152.167,26.5 151.833,26.5 151.5,30.5C 150.566,29.4324 150.232,28.099 150.5,26.5C 151.833,25.1667 151.833,23.8333 150.5,22.5C 150.167,19.8333 149.833,19.8333 149.5,22.5C 148.596,21.791 148.263,20.791 148.5,19.5C 147.18,18.0582 145.514,17.3915 143.5,17.5 Z"/></g>
<g><path style="opacity:1" fill="#666666" d="M 169.5,38.5 C 169.802,35.9407 169.468,33.6074 168.5,31.5C 168.492,25.7924 168.992,25.4591 170,30.5C 170.801,33.367 170.634,36.0336 169.5,38.5 Z"/></g>
<g><path style="opacity:1" fill="#faeac0" d="M 25.5,30.5 C 25.2053,32.7354 25.5386,34.7354 26.5,36.5C 26.334,41.8437 26.5006,47.1771 27,52.5C 28.8851,50.7054 31.0518,49.3721 33.5,48.5C 33.8333,49.8333 34.1667,49.8333 34.5,48.5C 35.1667,48.5 35.5,48.1667 35.5,47.5C 36.1667,47.5 36.5,47.1667 36.5,46.5C 37.1667,46.5 37.5,46.1667 37.5,45.5C 38.8333,45.1667 38.8333,44.8333 37.5,44.5C 37.8417,43.6618 38.5084,43.3284 39.5,43.5C 39.5,44.1667 39.8333,44.5 40.5,44.5C 37.8062,47.8605 34.8062,50.8605 31.5,53.5C 30.1667,54.5 28.8333,55.5 27.5,56.5C 27.1667,55.1667 26.8333,55.1667 26.5,56.5C 25.1667,56.8333 25.1667,57.1667 26.5,57.5C 25.8106,58.7736 24.9772,58.7736 24,57.5C 23.3333,49.5 23.3333,41.5 24,33.5C 24.2321,32.2625 24.7321,31.2625 25.5,30.5 Z"/></g>
<g><path style="opacity:1" fill="#a5a5a3" d="M 170.5,66.5 C 170.334,57.4938 170.5,48.4938 171,39.5C 171.824,48.6762 171.657,57.6762 170.5,66.5 Z"/></g>
<g><path style="opacity:1" fill="#f2bf69" d="M 21.5,20.5 C 23.045,21.2297 23.8784,22.563 24,24.5C 24.3333,24.1667 24.6667,23.8333 25,23.5C 25.4966,25.8098 25.6633,28.1432 25.5,30.5C 24.7321,31.2625 24.2321,32.2625 24,33.5C 23.3333,41.5 23.3333,49.5 24,57.5C 24.9772,58.7736 25.8106,58.7736 26.5,57.5C 26.5,57.1667 26.5,56.8333 26.5,56.5C 26.8333,56.5 27.1667,56.5 27.5,56.5C 28.8333,55.5 30.1667,54.5 31.5,53.5C 31.9012,56.4005 33.2345,57.0672 35.5,55.5C 36.369,56.3915 37.369,56.8915 38.5,57C 39.4498,54.4096 41.1165,52.4096 43.5,51C 43.1667,50.6667 42.8333,50.3333 42.5,50C 43.2931,48.9148 43.9598,47.7481 44.5,46.5C 45.0016,45.479 45.6683,45.3123 46.5,46C 45.3531,48.0846 46.0197,49.5846 48.5,50.5C 47.1745,50.2052 45.8412,50.7052 44.5,52C 45.9245,54.1005 47.2578,56.2672 48.5,58.5C 49.4255,59.6405 50.2588,59.6405 51,58.5C 52.4947,60.1096 52.6613,61.7763 51.5,63.5C 53.5086,65.7947 55.6752,67.128 58,67.5C 58.21,69.0581 58.71,70.3915 59.5,71.5C 59.8333,72.5 60.5,73.1667 61.5,73.5C 62.1667,73.5 62.8333,73.5 63.5,73.5C 64.1667,73.5 64.5,73.8333 64.5,74.5C 64.5,74.8333 64.5,75.1667 64.5,75.5C 65.8738,77.9588 68.0405,78.9588 71,78.5C 72.5,78.3333 74,78.1667 75.5,78C 76.2524,77.3292 76.5858,76.4959 76.5,75.5C 76.1667,74.1667 75.8333,74.1667 75.5,75.5C 75.1667,75.5 74.8333,75.5 74.5,75.5C 74.5,74.1667 74.5,72.8333 74.5,71.5C 75.8333,70.8333 75.8333,70.1667 74.5,69.5C 74.5,68.8333 74.1667,68.5 73.5,68.5C 73.1667,67.1667 72.8333,67.1667 72.5,68.5C 70.9731,68.573 69.9731,67.9063 69.5,66.5C 70.5063,66.0623 70.5063,65.3957 69.5,64.5C 69.5,63.8333 69.1667,63.5 68.5,63.5C 67.0484,62.6981 65.3817,62.1981 63.5,62C 66.7626,61.1305 67.0959,59.7972 64.5,58C 65.7155,55.9045 66.5488,56.0712 67,58.5C 68.5067,56.992 70.1733,55.6587 72,54.5C 72.7387,55.5742 73.7387,56.2409 75,56.5C 77.6052,54.0917 80.4386,54.2583 83.5,57C 83.1667,57.3333 82.8333,57.6667 82.5,58C 86.9364,56.8629 87.6031,58.1962 84.5,62C 86.5,62.3333 88.5,62.6667 90.5,63C 89.3961,64.1313 89.7295,64.9646 91.5,65.5C 93.7845,64.584 94.9512,65.584 95,68.5C 95.6543,67.3044 96.1543,67.3044 96.5,68.5C 95.624,69.2508 94.624,69.7508 93.5,70C 95.1371,71.951 96.6371,71.7843 98,69.5C 100.42,71.2569 102.253,73.9236 103.5,77.5C 104.312,78.9931 105.645,79.6598 107.5,79.5C 110.417,79.0362 113.084,78.0362 115.5,76.5C 117.438,77.4612 118.938,76.7946 120,74.5C 120.54,76.1346 120.04,77.4679 118.5,78.5C 119.729,79.2811 121.062,79.7811 122.5,80C 121.5,80.3333 120.5,80.6667 119.5,81C 120.737,81.2321 121.737,81.7321 122.5,82.5C 111.887,83.4207 109.22,88.4207 114.5,97.5C 113.292,98.2341 111.959,98.5674 110.5,98.5C 109.833,98.5 109.167,98.5 108.5,98.5C 107.833,98.5 107.5,98.1667 107.5,97.5C 107.158,96.6618 106.492,96.3284 105.5,96.5C 105.158,95.6618 104.492,95.3284 103.5,95.5C 102.791,94.596 101.791,94.2627 100.5,94.5C 99.791,93.596 98.791,93.2627 97.5,93.5C 97.5,92.8333 97.1667,92.5 96.5,92.5C 96.0825,91.7784 95.4158,91.2784 94.5,91C 85.1644,89.6879 76.8311,91.8546 69.5,97.5C 69.5,97.8333 69.5,98.1667 69.5,98.5C 68.8333,98.5 68.5,98.8333 68.5,99.5C 67.5084,99.3284 66.8417,99.6618 66.5,100.5C 65.8333,100.5 65.5,100.833 65.5,101.5C 64.8333,101.5 64.5,101.833 64.5,102.5C 63.8333,102.5 63.1667,102.5 62.5,102.5C 57.443,103.605 52.443,103.272 47.5,101.5C 46.8333,101.5 46.1667,101.5 45.5,101.5C 45.5,101.167 45.5,100.833 45.5,100.5C 45.4226,99.2502 44.756,98.4169 43.5,98C 40.9373,96.9207 38.2706,96.4207 35.5,96.5C 35.1667,96.5 34.8333,96.5 34.5,96.5C 27.1953,94.2651 20.8619,95.9318 15.5,101.5C 15.5,101.833 15.5,102.167 15.5,102.5C 15.1667,102.5 14.8333,102.5 14.5,102.5C 11.5691,104.091 8.90241,106.091 6.5,108.5C 6.30539,104.085 6.80539,99.7514 8,95.5C 10.6973,85.9065 13.864,76.5731 17.5,67.5C 17.3649,55.815 17.6983,44.1483 18.5,32.5C 18.7191,28.1998 19.7191,24.1998 21.5,20.5 Z M 63.5,66.5 C 65.5,66.5 67.5,66.5 69.5,66.5C 69.9731,67.9063 70.9731,68.573 72.5,68.5C 72.427,70.0269 73.0937,71.0269 74.5,71.5C 74.5,72.8333 74.5,74.1667 74.5,75.5C 74.5,75.8333 74.5,76.1667 74.5,76.5C 72.1667,76.5 69.8333,76.5 67.5,76.5C 67.5,75.8333 67.1667,75.5 66.5,75.5C 66.1583,74.6618 65.4916,74.3284 64.5,74.5C 64.5,73.8333 64.1667,73.5 63.5,73.5C 63.1667,72.8333 62.8333,72.1667 62.5,71.5C 62.5858,70.5041 62.2524,69.6708 61.5,69C 62.3805,68.2917 63.0472,67.4584 63.5,66.5 Z M 61.5,71.5 C 61.8333,71.5 62.1667,71.5 62.5,71.5C 62.8333,72.1667 63.1667,72.8333 63.5,73.5C 62.8333,73.5 62.1667,73.5 61.5,73.5C 61.5,72.8333 61.5,72.1667 61.5,71.5 Z M 96.5,92.5 C 97.1667,92.5 97.5,92.8333 97.5,93.5C 92.1667,93.5 86.8333,93.5 81.5,93.5C 86.3238,91.618 91.3238,91.2847 96.5,92.5 Z M 87.5,95.5 C 87.7352,94.9033 88.2352,94.5699 89,94.5C 91.6691,95.0161 94.1691,95.6827 96.5,96.5C 93.4299,96.6323 90.4299,96.299 87.5,95.5 Z"/></g>
<g><path style="opacity:1" fill="#8b8a8a" d="M 13.5,22.5 C 11.1933,39.0727 10.0267,55.7394 10,72.5C 7.17875,78.49 4.67875,84.49 2.5,90.5C 2.95947,87.1226 3.62614,83.7893 4.5,80.5C 5.83333,79.8333 5.83333,79.1667 4.5,78.5C 4.82574,75.6887 5.65907,73.022 7,70.5C 7.17295,57.468 7.83962,44.468 9,31.5C 9.86927,26.4919 10.5359,26.8252 11,32.5C 11.5348,28.9618 12.3681,25.6284 13.5,22.5 Z"/></g>
<g><path style="opacity:1" fill="#b8b8b8" d="M 168.5,38.5 C 168.833,38.5 169.167,38.5 169.5,38.5C 169.173,48.015 169.506,57.3483 170.5,66.5C 170.5,67.5 170.5,68.5 170.5,69.5C 169.833,69.5 169.5,69.8333 169.5,70.5C 168.007,69.6879 167.34,68.3545 167.5,66.5C 168.399,58.8623 168.732,51.1957 168.5,43.5C 168.5,41.8333 168.5,40.1667 168.5,38.5 Z"/></g>
<g><path style="opacity:1" fill="#b18745" d="M 18.5,32.5 C 17.6983,44.1483 17.3649,55.815 17.5,67.5C 16.8341,63.0124 16.5008,58.3457 16.5,53.5C 16.3326,46.2703 16.9993,39.2703 18.5,32.5 Z"/></g>
<g><path style="opacity:1" fill="#fedcbb" d="M 68.5,63.5 C 69.1667,63.5 69.5,63.8333 69.5,64.5C 66.6802,64.2475 64.0135,64.7475 61.5,66C 62.0944,66.4643 62.7611,66.631 63.5,66.5C 63.0472,67.4584 62.3805,68.2917 61.5,69C 62.2524,69.6708 62.5858,70.5041 62.5,71.5C 62.1667,71.5 61.8333,71.5 61.5,71.5C 61.5,72.1667 61.5,72.8333 61.5,73.5C 60.5,73.1667 59.8333,72.5 59.5,71.5C 59.5,68.8333 59.5,66.1667 59.5,63.5C 62.5,63.5 65.5,63.5 68.5,63.5 Z"/></g>
<g><path style="opacity:1" fill="#faefd9" d="M 116.5,64.5 C 114.265,64.2053 112.265,64.5386 110.5,65.5C 110.069,66.7727 108.735,67.7727 106.5,68.5C 106.5,67.8333 106.167,67.5 105.5,67.5C 108.357,63.5182 112.024,62.5182 116.5,64.5 Z"/></g>
<g><path style="opacity:1" fill="#f0eeae" d="M 72.5,68.5 C 72.8333,68.5 73.1667,68.5 73.5,68.5C 74.1667,68.5 74.5,68.8333 74.5,69.5C 74.5,70.1667 74.5,70.8333 74.5,71.5C 73.0937,71.0269 72.427,70.0269 72.5,68.5 Z"/></g>
<g><path style="opacity:1" fill="#b7b7b6" d="M 170.5,69.5 C 172.539,70.911 173.539,72.911 173.5,75.5C 172.662,75.8417 172.328,76.5084 172.5,77.5C 170.787,76.3646 170.12,74.698 170.5,72.5C 169.662,72.1583 169.328,71.4916 169.5,70.5C 170.167,70.5 170.5,70.1667 170.5,69.5 Z"/></g>
<g><path style="opacity:1" fill="#fce5c7" d="M 116.5,65.5 C 116.5,65.1667 116.5,64.8333 116.5,64.5C 117.496,64.4142 118.329,64.7476 119,65.5C 120.338,70.0403 119.171,73.707 115.5,76.5C 113.084,78.0362 110.417,79.0362 107.5,79.5C 105.645,79.6598 104.312,78.9931 103.5,77.5C 104.167,77.5 104.833,77.5 105.5,77.5C 106.5,78.8333 107.5,78.8333 108.5,77.5C 109.492,77.6716 110.158,77.3382 110.5,76.5C 111.492,76.6716 112.158,76.3382 112.5,75.5C 113.492,75.6716 114.158,75.3382 114.5,74.5C 115.167,74.5 115.5,74.1667 115.5,73.5C 116.167,73.5 116.5,73.1667 116.5,72.5C 117.833,72.1667 117.833,71.8333 116.5,71.5C 116.833,70.1667 117.167,68.8333 117.5,67.5C 118.833,67.1667 118.833,66.8333 117.5,66.5C 116.833,66.5 116.5,66.1667 116.5,65.5 Z"/></g>
<g><path style="opacity:1" fill="#f8f3e4" d="M 64.5,75.5 C 65.1667,75.5 65.8333,75.5 66.5,75.5C 67.1667,75.5 67.5,75.8333 67.5,76.5C 69.8333,77.8333 72.1667,77.8333 74.5,76.5C 75.1667,76.5 75.5,76.1667 75.5,75.5C 75.8333,75.5 76.1667,75.5 76.5,75.5C 76.5858,76.4959 76.2524,77.3292 75.5,78C 74,78.1667 72.5,78.3333 71,78.5C 68.0405,78.9588 65.8738,77.9588 64.5,75.5 Z"/></g>
<g><path style="opacity:1" fill="#c2c2c2" d="M 4.5,78.5 C 4.5,79.1667 4.5,79.8333 4.5,80.5C 3.16667,79.8333 3.16667,79.1667 4.5,78.5 Z"/></g>
<g><path style="opacity:1" fill="#939393" d="M 173.5,75.5 C 175.598,77.3226 175.932,79.4892 174.5,82C 176.018,85.7175 177.018,89.5508 177.5,93.5C 175.057,88.4995 173.39,83.1662 172.5,77.5C 173.338,77.1583 173.672,76.4916 173.5,75.5 Z"/></g>
<g><path style="opacity:1" fill="#090602" d="M 54.5,82.5 C 58.7532,81.986 62.5866,82.986 66,85.5C 68.7224,95.4501 64.8891,99.9501 54.5,99C 47.8812,93.4707 47.8812,87.9707 54.5,82.5 Z"/></g>
<g><path style="opacity:1" fill="#090603" d="M 122.5,82.5 C 125.075,83.5678 127.242,85.2345 129,87.5C 129.207,98.1255 124.373,101.459 114.5,97.5C 109.22,88.4207 111.887,83.4207 122.5,82.5 Z"/></g>
<g><path style="opacity:1" fill="#636363" d="M -0.5,90.5 C 0.434475,91.5676 0.767809,92.901 0.5,94.5C 0.166667,94.5 -0.166667,94.5 -0.5,94.5C -0.5,93.1667 -0.5,91.8333 -0.5,90.5 Z"/></g>
<g><path style="opacity:1" fill="#f8eace" d="M 96.5,92.5 C 91.3238,91.2847 86.3238,91.618 81.5,93.5C 79.901,93.2322 78.5676,93.5655 77.5,94.5C 76.5084,94.3284 75.8417,94.6618 75.5,95.5C 74.5084,95.3284 73.8417,95.6618 73.5,96.5C 72.5084,96.3284 71.8417,96.6618 71.5,97.5C 70.8333,97.5 70.1667,97.5 69.5,97.5C 76.8311,91.8546 85.1644,89.6879 94.5,91C 95.4158,91.2784 96.0825,91.7784 96.5,92.5 Z"/></g>
<g><path style="opacity:1" fill="#c9b7a9" d="M 81.5,93.5 C 86.8333,93.5 92.1667,93.5 97.5,93.5C 98.209,94.404 99.209,94.7373 100.5,94.5C 100.5,94.8333 100.5,95.1667 100.5,95.5C 99.8333,95.5 99.5,95.8333 99.5,96.5C 98.5,96.5 97.5,96.5 96.5,96.5C 94.1691,95.6827 91.6691,95.0161 89,94.5C 88.2352,94.5699 87.7352,94.9033 87.5,95.5C 85.2646,95.2053 83.2646,95.5386 81.5,96.5C 80.8333,96.5 80.1667,96.5 79.5,96.5C 79.1583,95.6618 78.4916,95.3284 77.5,95.5C 77.5,95.1667 77.5,94.8333 77.5,94.5C 79.099,94.7678 80.4324,94.4345 81.5,93.5 Z M 87.5,95.5 C 87.7352,94.9033 88.2352,94.5699 89,94.5C 91.6691,95.0161 94.1691,95.6827 96.5,96.5C 93.4299,96.6323 90.4299,96.299 87.5,95.5 Z"/></g>
<g><path style="opacity:1" fill="#fbe9c7" d="M 35.5,97.5 C 35.5,97.1667 35.5,96.8333 35.5,96.5C 38.2706,96.4207 40.9373,96.9207 43.5,98C 44.756,98.4169 45.4226,99.2502 45.5,100.5C 44.8333,100.5 44.1667,100.5 43.5,100.5C 43.1583,99.6618 42.4916,99.3284 41.5,99.5C 41.1583,98.6618 40.4916,98.3284 39.5,98.5C 38.4324,97.5655 37.099,97.2322 35.5,97.5 Z"/></g>
<g><path style="opacity:1" fill="#b0b2af" d="M 87.5,95.5 C 90.4299,96.299 93.4299,96.6323 96.5,96.5C 96.5,96.8333 96.5,97.1667 96.5,97.5C 90.7969,97.3748 85.1302,97.7081 79.5,98.5C 79.5,98.1667 79.5,97.8333 79.5,97.5C 80.4916,97.6716 81.1583,97.3382 81.5,96.5C 83.7354,96.7947 85.7354,96.4614 87.5,95.5 Z"/></g>
<g><path style="opacity:1" fill="#f8ebd0" d="M 34.5,96.5 C 31.6146,96.1936 28.9479,96.5269 26.5,97.5C 24.901,97.2322 23.5676,97.5655 22.5,98.5C 21.5084,98.3284 20.8417,98.6618 20.5,99.5C 19.5084,99.3284 18.8417,99.6618 18.5,100.5C 17.8333,100.5 17.5,100.833 17.5,101.5C 16.8333,101.5 16.1667,101.5 15.5,101.5C 20.8619,95.9318 27.1953,94.2651 34.5,96.5 Z"/></g>
<g><path style="opacity:1" fill="#111110" d="M 96.5,97.5 C 97.5137,98.6737 98.847,99.3404 100.5,99.5C 100.833,100.5 101.5,101.167 102.5,101.5C 103.219,103.764 103.552,106.097 103.5,108.5C 102.094,108.973 101.427,109.973 101.5,111.5C 100.167,112.167 99.1667,113.167 98.5,114.5C 98.5,114.833 98.5,115.167 98.5,115.5C 97.8333,115.5 97.5,115.833 97.5,116.5C 96.8333,116.5 96.1667,116.5 95.5,116.5C 93.6891,116.572 92.3557,117.405 91.5,119C 91.7483,120.749 92.7483,121.582 94.5,121.5C 95.287,123.104 96.6203,123.771 98.5,123.5C 98.9175,124.222 99.5842,124.722 100.5,125C 103.833,125.667 107.167,125.667 110.5,125C 112.141,123.871 113.141,122.371 113.5,120.5C 117.068,120.759 118.401,122.759 117.5,126.5C 117.5,126.833 117.5,127.167 117.5,127.5C 116.833,127.5 116.5,127.833 116.5,128.5C 115.833,128.5 115.5,128.833 115.5,129.5C 114.833,129.5 114.5,129.833 114.5,130.5C 113.508,130.328 112.842,130.662 112.5,131.5C 111.833,131.5 111.167,131.5 110.5,131.5C 108.099,134.992 106.433,138.992 105.5,143.5C 102.327,146.913 98.6598,149.58 94.5,151.5C 90.1311,151.533 85.7978,151.2 81.5,150.5C 80.4154,148.413 78.7488,147.08 76.5,146.5C 76.1667,146.5 75.8333,146.5 75.5,146.5C 75.5,145.833 75.1667,145.5 74.5,145.5C 74.1667,144.167 73.8333,144.167 73.5,145.5C 72.0937,145.027 71.427,144.027 71.5,142.5C 71.8333,142.5 72.1667,142.5 72.5,142.5C 72.8333,143.833 73.1667,143.833 73.5,142.5C 73.573,140.973 72.9063,139.973 71.5,139.5C 71.6928,136.189 70.6928,133.522 68.5,131.5C 67.8333,131.5 67.1667,131.5 66.5,131.5C 66.1583,130.662 65.4916,130.328 64.5,130.5C 63.8333,130.5 63.5,130.167 63.5,129.5C 62.8333,129.5 62.5,129.167 62.5,128.5C 62.5,128.167 62.5,127.833 62.5,127.5C 61.6765,125.545 61.5099,123.545 62,121.5C 63.4902,120.272 64.9902,120.272 66.5,121.5C 67.1667,121.5 67.5,121.167 67.5,120.5C 68.5,120.833 69.1667,121.5 69.5,122.5C 68.5084,122.328 67.8417,122.662 67.5,123.5C 67.6107,124.117 67.944,124.617 68.5,125C 75.2002,126.589 81.0335,125.089 86,120.5C 86.49,119.207 86.6567,117.873 86.5,116.5C 85.1667,116.5 83.8333,116.5 82.5,116.5C 81.8333,116.5 81.1667,116.5 80.5,116.5C 79.8333,116.5 79.5,116.167 79.5,115.5C 79.5,114.833 79.1667,114.5 78.5,114.5C 78.5,113.833 78.1667,113.5 77.5,113.5C 77.5,112.833 77.1667,112.5 76.5,112.5C 76.1667,111.167 75.8333,111.167 75.5,112.5C 74.0937,112.027 73.427,111.027 73.5,109.5C 73.8333,109.5 74.1667,109.5 74.5,109.5C 74.8333,110.833 75.1667,110.833 75.5,109.5C 75.5,107.167 75.5,104.833 75.5,102.5C 77.1667,101.5 78.5,100.167 79.5,98.5C 85.1302,97.7081 90.7969,97.3748 96.5,97.5 Z M 84.5,130.5 C 87.8333,130.5 91.1667,130.5 94.5,130.5C 94.8417,131.338 95.5084,131.672 96.5,131.5C 96.8417,132.338 97.5084,132.672 98.5,132.5C 98.5,132.833 98.5,133.167 98.5,133.5C 98.6107,134.117 98.944,134.617 99.5,135C 98.4178,136.33 97.7512,137.83 97.5,139.5C 97.5,139.833 97.5,140.167 97.5,140.5C 96.8333,140.5 96.5,140.833 96.5,141.5C 95.8333,141.5 95.5,141.833 95.5,142.5C 94.209,142.263 93.209,142.596 92.5,143.5C 90.8333,143.5 89.1667,143.5 87.5,143.5C 86.791,142.596 85.791,142.263 84.5,142.5C 84.1583,141.662 83.4916,141.328 82.5,141.5C 82.5,140.833 82.1667,140.5 81.5,140.5C 81.5,140.167 81.5,139.833 81.5,139.5C 81.2488,137.83 80.5822,136.33 79.5,135C 80.056,134.617 80.3893,134.117 80.5,133.5C 80.5,133.167 80.5,132.833 80.5,132.5C 81.4916,132.672 82.1583,132.338 82.5,131.5C 83.4916,131.672 84.1583,131.338 84.5,130.5 Z"/></g>
<g><path style="opacity:1" fill="#c8cac8" d="M 96.5,97.5 C 97.5,97.5 98.5,97.5 99.5,97.5C 99.5,98.1667 99.8333,98.5 100.5,98.5C 100.5,98.8333 100.5,99.1667 100.5,99.5C 98.847,99.3404 97.5137,98.6737 96.5,97.5 Z"/></g>
<g><path style="opacity:1" fill="#9f9f9e" d="M 100.5,98.5 C 100.5,98.1667 100.5,97.8333 100.5,97.5C 102.833,97.8333 104.167,99.1667 104.5,101.5C 104.167,101.5 103.833,101.5 103.5,101.5C 103.167,100.167 102.833,100.167 102.5,101.5C 101.5,101.167 100.833,100.5 100.5,99.5C 101.833,99.1667 101.833,98.8333 100.5,98.5 Z"/></g>
<g><path style="opacity:1" fill="#8e908e" d="M 77.5,98.5 C 78.1667,98.5 78.8333,98.5 79.5,98.5C 78.5,100.167 77.1667,101.5 75.5,102.5C 75.1667,101.167 74.8333,101.167 74.5,102.5C 74.1667,102.5 73.8333,102.5 73.5,102.5C 73.427,100.973 74.0937,99.9731 75.5,99.5C 75.8333,100.833 76.1667,100.833 76.5,99.5C 77.1667,99.5 77.5,99.1667 77.5,98.5 Z"/></g>
<g><path style="opacity:1" fill="#fae5c1" d="M 47.5,102.5 C 47.5,102.167 47.5,101.833 47.5,101.5C 52.443,103.272 57.443,103.605 62.5,102.5C 62.5,102.833 62.5,103.167 62.5,103.5C 61.8333,103.5 61.5,103.833 61.5,104.5C 60.5084,104.328 59.8417,104.662 59.5,105.5C 57.5,105.5 55.5,105.5 53.5,105.5C 52.2196,104.069 50.5529,103.402 48.5,103.5C 47.8333,103.5 47.5,103.167 47.5,102.5 Z"/></g>
<g><path style="opacity:1" fill="#f9eacb" d="M 139.5,97.5 C 139.5,97.8333 139.5,98.1667 139.5,98.5C 138.508,98.3284 137.842,98.6618 137.5,99.5C 136.508,99.3284 135.842,99.6618 135.5,100.5C 134.508,100.328 133.842,100.662 133.5,101.5C 132.508,101.328 131.842,101.662 131.5,102.5C 130.508,102.328 129.842,102.662 129.5,103.5C 128.508,103.328 127.842,103.662 127.5,104.5C 126.209,104.263 125.209,104.596 124.5,105.5C 122.833,105.5 121.167,105.5 119.5,105.5C 119.158,104.662 118.492,104.328 117.5,104.5C 117.5,104.167 117.5,103.833 117.5,103.5C 120.187,103.664 122.854,103.497 125.5,103C 130.05,100.872 134.717,99.0388 139.5,97.5 Z"/></g>
<g><path style="opacity:1" fill="#a4a6a7" d="M 73.5,102.5 C 73.8333,105.167 74.1667,105.167 74.5,102.5C 74.8333,102.5 75.1667,102.5 75.5,102.5C 75.5,104.833 75.5,107.167 75.5,109.5C 75.1667,109.5 74.8333,109.5 74.5,109.5C 74.1667,104.167 73.8333,104.167 73.5,109.5C 72.1667,107.167 72.1667,104.833 73.5,102.5 Z"/></g>
<g><path style="opacity:1" fill="#a9b3ac" d="M 102.5,101.5 C 102.833,101.5 103.167,101.5 103.5,101.5C 103.833,102.833 104.167,102.833 104.5,101.5C 105.993,102.312 106.66,103.645 106.5,105.5C 106.533,108.102 105.533,110.102 103.5,111.5C 103.167,110.167 102.833,110.167 102.5,111.5C 102.167,111.5 101.833,111.5 101.5,111.5C 101.427,109.973 102.094,108.973 103.5,108.5C 103.552,106.097 103.219,103.764 102.5,101.5 Z"/></g>
<g><path style="opacity:1" fill="#f7f0e2" d="M 14.5,102.5 C 14.5,102.833 14.5,103.167 14.5,103.5C 13.8333,103.5 13.5,103.833 13.5,104.5C 12.8333,104.5 12.5,104.833 12.5,105.5C 11.8333,105.5 11.5,105.833 11.5,106.5C 10.8333,106.5 10.5,106.833 10.5,107.5C 9.83333,107.5 9.5,107.833 9.5,108.5C 8.16667,108.833 8.16667,109.167 9.5,109.5C 9.17876,111.048 8.17876,111.715 6.5,111.5C 6.5,110.5 6.5,109.5 6.5,108.5C 8.90241,106.091 11.5691,104.091 14.5,102.5 Z"/></g>
<g><path style="opacity:1" fill="#d2cfc5" d="M 168.5,107.5 C 168.833,107.5 169.167,107.5 169.5,107.5C 169.833,108.833 170.167,108.833 170.5,107.5C 171.167,107.833 171.833,108.167 172.5,108.5C 172.815,112.371 172.482,116.038 171.5,119.5C 170.72,109.521 170.72,109.854 171.5,120.5C 171.784,122.415 171.451,124.081 170.5,125.5C 170.768,123.901 170.434,122.568 169.5,121.5C 169.717,116.77 169.383,112.103 168.5,107.5 Z"/></g>
<g><path style="opacity:1" fill="#989897" d="M 101.5,111.5 C 101.833,112.833 102.167,112.833 102.5,111.5C 102.833,111.5 103.167,111.5 103.5,111.5C 103.573,113.027 102.906,114.027 101.5,114.5C 101.167,113.167 100.833,113.167 100.5,114.5C 99.8333,114.5 99.1667,114.5 98.5,114.5C 99.1667,113.167 100.167,112.167 101.5,111.5 Z"/></g>
<g><path style="opacity:1" fill="#8a8a8a" d="M 76.5,113.5 C 76.8333,113.5 77.1667,113.5 77.5,113.5C 78.1667,113.5 78.5,113.833 78.5,114.5C 78.5,114.833 78.5,115.167 78.5,115.5C 77.1667,115.5 76.5,114.833 76.5,113.5 Z"/></g>
<g><path style="opacity:1" fill="#cececb" d="M 95.5,116.5 C 95.5,116.833 95.5,117.167 95.5,117.5C 94.8333,117.5 94.5,117.833 94.5,118.5C 93.1667,119.167 93.1667,119.833 94.5,120.5C 94.5,120.833 94.5,121.167 94.5,121.5C 92.7483,121.582 91.7483,120.749 91.5,119C 92.3557,117.405 93.6891,116.572 95.5,116.5 Z"/></g>
<g><path style="opacity:1" fill="#b4b39c" d="M 82.5,118.5 C 83.1667,118.5 83.8333,118.5 84.5,118.5C 84.5,118.833 84.5,119.167 84.5,119.5C 83.8333,119.5 83.5,119.833 83.5,120.5C 82.8333,120.5 82.1667,120.5 81.5,120.5C 81.8333,119.833 82.1667,119.167 82.5,118.5 Z"/></g>
<g><path style="opacity:1" fill="#aeaeae" d="M 94.5,118.5 C 94.8333,118.5 95.1667,118.5 95.5,118.5C 95.8333,119.167 96.1667,119.833 96.5,120.5C 95.8333,120.5 95.1667,120.5 94.5,120.5C 94.5,119.833 94.5,119.167 94.5,118.5 Z"/></g>
<g><path style="opacity:1" fill="#aaaba8" d="M 113.5,120.5 C 113.5,120.167 113.5,119.833 113.5,119.5C 114.833,119.5 116.167,119.5 117.5,119.5C 117.833,120.833 118.167,120.833 118.5,119.5C 121.734,121.572 122.067,123.905 119.5,126.5C 119.167,123.833 118.833,123.833 118.5,126.5C 118.167,126.5 117.833,126.5 117.5,126.5C 118.401,122.759 117.068,120.759 113.5,120.5 Z"/></g>
<g><path style="opacity:1" fill="#b0b1af" d="M 94.5,121.5 C 95.1667,121.5 95.8333,121.5 96.5,121.5C 96.8417,122.338 97.5084,122.672 98.5,122.5C 98.5,122.833 98.5,123.167 98.5,123.5C 96.6203,123.771 95.287,123.104 94.5,121.5 Z"/></g>
<g><path style="opacity:1" fill="#9a9997" d="M 60.5,119.5 C 60.8333,120.833 61.1667,120.833 61.5,119.5C 63.7354,119.205 65.7354,119.539 67.5,120.5C 66.8333,120.5 66.5,120.833 66.5,121.5C 64.9902,120.272 63.4902,120.272 62,121.5C 61.5099,123.545 61.6765,125.545 62.5,127.5C 62.1667,127.5 61.8333,127.5 61.5,127.5C 60.8333,127.5 60.5,127.167 60.5,126.5C 60.6716,125.508 60.3382,124.842 59.5,124.5C 59.6716,123.508 59.3382,122.842 58.5,122.5C 58.427,120.973 59.0937,119.973 60.5,119.5 Z"/></g>
<g><path style="opacity:1" fill="#8a8a88" d="M 82.5,117.5 C 82.5,117.167 82.5,116.833 82.5,116.5C 83.8333,116.5 85.1667,116.5 86.5,116.5C 86.6567,117.873 86.49,119.207 86,120.5C 81.0335,125.089 75.2002,126.589 68.5,125C 67.944,124.617 67.6107,124.117 67.5,123.5C 68.1667,123.5 68.8333,123.5 69.5,123.5C 72.1667,124.833 74.8333,124.833 77.5,123.5C 78.4916,123.672 79.1583,123.338 79.5,122.5C 80.4916,122.672 81.1583,122.338 81.5,121.5C 82.4916,121.672 83.1583,121.338 83.5,120.5C 84.1667,120.5 84.5,120.167 84.5,119.5C 85.8333,119.167 85.8333,118.833 84.5,118.5C 84.1583,117.662 83.4916,117.328 82.5,117.5 Z"/></g>
<g><path style="opacity:1" fill="#c7c8c4" d="M 112.5,120.5 C 112.833,120.5 113.167,120.5 113.5,120.5C 113.141,122.371 112.141,123.871 110.5,125C 107.167,125.667 103.833,125.667 100.5,125C 99.5842,124.722 98.9175,124.222 98.5,123.5C 99.5,123.5 100.5,123.5 101.5,123.5C 104.167,124.833 106.833,124.833 109.5,123.5C 110.167,123.5 110.5,123.167 110.5,122.5C 111.167,122.5 111.5,122.167 111.5,121.5C 112.167,121.5 112.5,121.167 112.5,120.5 Z"/></g>
<g><path style="opacity:1" fill="#aaaba6" d="M 94.5,129.5 C 90.8541,127.907 87.5207,128.24 84.5,130.5C 83.5084,130.328 82.8417,130.662 82.5,131.5C 81.8333,131.5 81.1667,131.5 80.5,131.5C 84.7302,127.318 89.3968,126.651 94.5,129.5 Z"/></g>
<g><path style="opacity:1" fill="#7f817c" d="M 94.5,130.5 C 94.5,130.167 94.5,129.833 94.5,129.5C 97.3933,129.031 99.3933,130.031 100.5,132.5C 99.8333,132.5 99.1667,132.5 98.5,132.5C 98.1583,131.662 97.4916,131.328 96.5,131.5C 96.1583,130.662 95.4916,130.328 94.5,130.5 Z"/></g>
<g><path style="opacity:1" fill="#9b9b9b" d="M 178.5,128.5 C 178.833,128.5 179.167,128.5 179.5,128.5C 179.5,129.5 179.5,130.5 179.5,131.5C 179.167,131.5 178.833,131.5 178.5,131.5C 178.5,130.5 178.5,129.5 178.5,128.5 Z"/></g>
<g><path style="opacity:1" fill="#6c6c5a" d="M -0.5,129.5 C -0.166667,129.5 0.166667,129.5 0.5,129.5C 0.5,130.5 0.5,131.5 0.5,132.5C 0.166667,132.5 -0.166667,132.5 -0.5,132.5C -0.5,131.5 -0.5,130.5 -0.5,129.5 Z"/></g>
<g><path style="opacity:1" fill="#939493" d="M 9.5,123.5 C 8.16667,124.833 8.16667,126.167 9.5,127.5C 11.3795,128.48 12.7128,131.147 13.5,135.5C 14.3382,135.842 14.6716,136.508 14.5,137.5C 15.9063,137.973 16.573,138.973 16.5,140.5C 16.1667,140.5 15.8333,140.5 15.5,140.5C 15.1667,139.167 14.8333,139.167 14.5,140.5C 9.835,135.521 7.50167,129.521 7.5,122.5C 8.31382,120.369 8.81382,118.036 9,115.5C 9.49742,118.146 9.66409,120.813 9.5,123.5 Z"/></g>
<g><path style="opacity:1" fill="#989a98" d="M 110.5,131.5 C 110.842,132.338 111.508,132.672 112.5,132.5C 112.011,133.995 111.345,135.329 110.5,136.5C 110.737,137.791 110.404,138.791 109.5,139.5C 109.167,136.833 108.833,136.833 108.5,139.5C 107.167,140.167 107.167,140.833 108.5,141.5C 108.672,142.492 108.338,143.158 107.5,143.5C 107.167,142.167 106.833,142.167 106.5,143.5C 106.167,143.5 105.833,143.5 105.5,143.5C 106.433,138.992 108.099,134.992 110.5,131.5 Z"/></g>
<g><path style="opacity:1" fill="#b8b8b7" d="M 68.5,131.5 C 70.6928,133.522 71.6928,136.189 71.5,139.5C 72.9063,139.973 73.573,140.973 73.5,142.5C 73.1667,142.5 72.8333,142.5 72.5,142.5C 72.1667,141.167 71.8333,141.167 71.5,142.5C 69.461,141.089 68.461,139.089 68.5,136.5C 67.6554,135.329 66.9887,133.995 66.5,132.5C 67.4916,132.672 68.1583,132.338 68.5,131.5 Z"/></g>
<g><path style="opacity:1" fill="#909190" d="M 169.5,130.5 C 169.672,131.492 169.338,132.158 168.5,132.5C 168.843,134.483 168.176,135.817 166.5,136.5C 166.672,137.492 166.338,138.158 165.5,138.5C 165.672,139.492 165.338,140.158 164.5,140.5C 164.167,139.167 163.833,139.167 163.5,140.5C 163.167,140.5 162.833,140.5 162.5,140.5C 164.321,136.188 166.154,131.855 168,127.5C 168.232,128.737 168.732,129.737 169.5,130.5 Z"/></g>
<g><path style="opacity:1" fill="#9fa09e" d="M 78.5,132.5 C 78.8417,133.338 79.5084,133.672 80.5,133.5C 80.3893,134.117 80.056,134.617 79.5,135C 80.5822,136.33 81.2488,137.83 81.5,139.5C 80.1667,139.833 80.1667,140.167 81.5,140.5C 82.1667,140.5 82.5,140.833 82.5,141.5C 82.8417,142.338 83.5084,142.672 84.5,142.5C 85.209,143.404 86.209,143.737 87.5,143.5C 89.1667,144.833 90.8333,144.833 92.5,143.5C 93.5,143.5 94.5,143.5 95.5,143.5C 89.4612,146.689 83.9612,145.689 79,140.5C 78.5172,139.552 78.3505,138.552 78.5,137.5C 75.9521,135.704 75.9521,134.038 78.5,132.5 Z"/></g>
<g><path style="opacity:1" fill="#9b9b9a" d="M 0.5,94.5 C 0.833333,94.5 1.16667,94.5 1.5,94.5C -1.64427,112.013 0.689063,128.679 8.5,144.5C 8.16667,144.5 7.83333,144.5 7.5,144.5C 7.16667,143.167 6.83333,143.167 6.5,144.5C 3.45979,141.086 1.45979,137.086 0.5,132.5C 1.83333,131.5 1.83333,130.5 0.5,129.5C 0.737305,128.209 0.403972,127.209 -0.5,126.5C -0.5,117.167 -0.5,107.833 -0.5,98.5C 0.434475,97.4324 0.767809,96.099 0.5,94.5 Z"/></g>
<g><path style="opacity:1" fill="#b1b3af" d="M 100.5,132.5 C 103.048,134.038 103.048,135.704 100.5,137.5C 100.288,140.712 98.6209,142.712 95.5,143.5C 95.5,143.167 95.5,142.833 95.5,142.5C 96.1667,142.5 96.5,142.167 96.5,141.5C 97.1667,141.5 97.5,141.167 97.5,140.5C 98.8333,140.167 98.8333,139.833 97.5,139.5C 97.7512,137.83 98.4178,136.33 99.5,135C 98.944,134.617 98.6107,134.117 98.5,133.5C 99.4916,133.672 100.158,133.338 100.5,132.5 Z"/></g>
<g><path style="opacity:1" fill="#9a9b9a" d="M 179.5,89.5 C 179.5,91.1667 179.5,92.8333 179.5,94.5C 178.167,95.5 178.167,96.5 179.5,97.5C 179.5,106.5 179.5,115.5 179.5,124.5C 178.566,125.568 178.232,126.901 178.5,128.5C 177.167,129.5 177.167,130.5 178.5,131.5C 177.401,137.699 174.734,143.032 170.5,147.5C 170.5,146.833 170.167,146.5 169.5,146.5C 177.962,129.828 180.629,112.161 177.5,93.5C 178.167,92.1667 178.833,90.8333 179.5,89.5 Z"/></g>
<g><path style="opacity:1" fill="#a8a8a8" d="M 14.5,140.5 C 14.8333,140.5 15.1667,140.5 15.5,140.5C 15.8333,141.833 16.1667,141.833 16.5,140.5C 17.9063,140.973 18.573,141.973 18.5,143.5C 18.1667,143.5 17.8333,143.5 17.5,143.5C 17.1667,142.167 16.8333,142.167 16.5,143.5C 15.0937,143.027 14.427,142.027 14.5,140.5 Z"/></g>
<g><path style="opacity:1" fill="#b7b8b7" d="M 16.5,143.5 C 16.8333,143.5 17.1667,143.5 17.5,143.5C 17.5,144.167 17.8333,144.5 18.5,144.5C 19.1667,144.5 19.5,144.833 19.5,145.5C 20.1667,145.5 20.5,145.833 20.5,146.5C 21.1667,146.5 21.5,146.833 21.5,147.5C 22.1667,147.5 22.5,147.833 22.5,148.5C 23.1667,148.5 23.5,148.833 23.5,149.5C 24.1667,149.5 24.5,149.833 24.5,150.5C 25.1667,150.5 25.5,150.833 25.5,151.5C 25.5,152.167 25.8333,152.5 26.5,152.5C 26.5,152.833 26.5,153.167 26.5,153.5C 22.1667,151.167 18.8333,147.833 16.5,143.5 Z"/></g>
<g><path style="opacity:1" fill="#a4a3a2" d="M 6.5,144.5 C 6.83333,144.5 7.16667,144.5 7.5,144.5C 7.83333,145.833 8.16667,145.833 8.5,144.5C 10.2624,145.262 11.2624,146.596 11.5,148.5C 11.1667,148.5 10.8333,148.5 10.5,148.5C 10.5,147.833 10.1667,147.5 9.5,147.5C 9.16667,146.167 8.83333,146.167 8.5,147.5C 7.09368,147.027 6.42702,146.027 6.5,144.5 Z"/></g>
<g><path style="opacity:1" fill="#b9b9b9" d="M 73.5,145.5 C 73.8333,145.5 74.1667,145.5 74.5,145.5C 75.1667,145.5 75.5,145.833 75.5,146.5C 75.5,146.833 75.5,147.167 75.5,147.5C 74.1667,147.5 73.5,146.833 73.5,145.5 Z"/></g>
<g><path style="opacity:1" fill="#bcbdba" d="M 105.5,143.5 C 105.5,144.167 105.833,144.5 106.5,144.5C 106.262,146.404 105.262,147.738 103.5,148.5C 103.167,147.167 102.833,147.167 102.5,148.5C 101.167,148.833 101.167,149.167 102.5,149.5C 102.158,150.338 101.492,150.672 100.5,150.5C 100.167,149.167 99.8333,149.167 99.5,150.5C 98.5084,150.328 97.8417,150.662 97.5,151.5C 96.5,151.5 95.5,151.5 94.5,151.5C 98.6598,149.58 102.327,146.913 105.5,143.5 Z"/></g>
<g><path style="opacity:1" fill="#8e8f8b" d="M 163.5,140.5 C 163.833,140.5 164.167,140.5 164.5,140.5C 162.223,145.777 158.556,149.777 153.5,152.5C 153.5,152.167 153.5,151.833 153.5,151.5C 154.167,151.5 154.5,151.167 154.5,150.5C 155.167,150.5 155.5,150.167 155.5,149.5C 156.167,149.5 156.5,149.167 156.5,148.5C 157.167,148.5 157.5,148.167 157.5,147.5C 158.167,147.5 158.5,147.167 158.5,146.5C 159.833,146.167 159.833,145.833 158.5,145.5C 158.738,143.596 159.738,142.262 161.5,141.5C 161.833,142.833 162.167,142.833 162.5,141.5C 163.167,141.5 163.5,141.167 163.5,140.5 Z"/></g>
<g><path style="opacity:1" fill="#9c9c9b" d="M 8.5,147.5 C 8.83333,147.5 9.16667,147.5 9.5,147.5C 10.1667,147.5 10.5,147.833 10.5,148.5C 10.8333,149.833 11.1667,149.833 11.5,148.5C 13.5869,149.585 14.9202,151.251 15.5,153.5C 14.2058,152.71 13.0391,151.71 12,150.5C 9.99525,151.032 8.82858,150.032 8.5,147.5 Z"/></g>
<g><path style="opacity:1" fill="#bbbcba" d="M 76.5,146.5 C 78.7488,147.08 80.4154,148.413 81.5,150.5C 80.8333,150.5 80.1667,150.5 79.5,150.5C 78.8333,150.5 78.5,150.167 78.5,149.5C 77.8333,149.5 77.5,149.167 77.5,148.5C 77.1667,147.833 76.8333,147.167 76.5,146.5 Z"/></g>
<g><path style="opacity:1" fill="#c8c9c5" d="M 81.5,151.5 C 81.5,151.167 81.5,150.833 81.5,150.5C 85.7978,151.2 90.1311,151.533 94.5,151.5C 94.5,151.833 94.5,152.167 94.5,152.5C 91.1667,152.5 87.8333,152.5 84.5,152.5C 83.791,151.596 82.791,151.263 81.5,151.5 Z"/></g>
<g><path style="opacity:1" fill="#c1c1c1" d="M 169.5,147.5 C 169.833,147.5 170.167,147.5 170.5,147.5C 170.262,149.404 169.262,150.738 167.5,151.5C 167.167,150.167 166.833,150.167 166.5,151.5C 165.833,151.5 165.5,151.833 165.5,152.5C 164.833,152.5 164.5,152.833 164.5,153.5C 163.833,153.5 163.5,153.833 163.5,154.5C 162.833,154.5 162.5,154.833 162.5,155.5C 161.833,155.5 161.5,155.833 161.5,156.5C 160.833,156.5 160.5,156.833 160.5,157.5C 159.833,157.5 159.5,157.833 159.5,158.5C 158.833,158.5 158.5,158.833 158.5,159.5C 157.833,159.5 157.167,159.5 156.5,159.5C 159.833,155.5 163.5,151.833 167.5,148.5C 167.833,149.833 168.167,149.833 168.5,148.5C 169.167,148.5 169.5,148.167 169.5,147.5 Z"/></g>
<g><path style="opacity:1" fill="#a7a8a7" d="M 166.5,151.5 C 166.833,151.5 167.167,151.5 167.5,151.5C 167.315,152.17 166.981,152.17 166.5,151.5 Z"/></g>
<g><path style="opacity:1" fill="#f9faf9" d="M 165.5,152.5 C 165.833,152.5 166.167,152.5 166.5,152.5C 166.315,153.17 165.981,153.17 165.5,152.5 Z"/></g>
<g><path style="opacity:1" fill="#ababaa" d="M 15.5,153.5 C 18.4274,154.757 20.7607,156.757 22.5,159.5C 19.5726,158.243 17.2393,156.243 15.5,153.5 Z"/></g>
<g><path style="opacity:1" fill="#bcbcbb" d="M 26.5,152.5 C 26.5,152.167 26.5,151.833 26.5,151.5C 28.0269,151.427 29.0269,152.094 29.5,153.5C 28.1667,153.833 28.1667,154.167 29.5,154.5C 29.5,154.833 29.5,155.167 29.5,155.5C 27.9731,155.573 26.9731,154.906 26.5,153.5C 27.8333,153.167 27.8333,152.833 26.5,152.5 Z"/></g>
<g><path style="opacity:1" fill="#babbba" d="M 164.5,153.5 C 164.833,153.5 165.167,153.5 165.5,153.5C 165.315,154.17 164.981,154.17 164.5,153.5 Z"/></g>
<g><path style="opacity:1" fill="#acadab" d="M 151.5,152.5 C 152.167,152.5 152.833,152.5 153.5,152.5C 149.967,156.435 145.634,159.101 140.5,160.5C 140.5,160.167 140.5,159.833 140.5,159.5C 141.492,159.672 142.158,159.338 142.5,158.5C 143.492,158.672 144.158,158.338 144.5,157.5C 145.167,157.5 145.5,157.167 145.5,156.5C 146.492,156.672 147.158,156.338 147.5,155.5C 148.833,155.167 148.833,154.833 147.5,154.5C 147.842,153.662 148.508,153.328 149.5,153.5C 149.833,154.833 150.167,154.833 150.5,153.5C 151.167,153.5 151.5,153.167 151.5,152.5 Z"/></g>
<g><path style="opacity:1" fill="#babbba" d="M 163.5,154.5 C 163.833,154.5 164.167,154.5 164.5,154.5C 164.315,155.17 163.981,155.17 163.5,154.5 Z"/></g>
<g><path style="opacity:1" fill="#babbba" d="M 162.5,155.5 C 162.833,155.5 163.167,155.5 163.5,155.5C 163.315,156.17 162.981,156.17 162.5,155.5 Z"/></g>
<g><path style="opacity:1" fill="#959695" d="M 161.5,156.5 C 161.833,156.5 162.167,156.5 162.5,156.5C 162.315,157.17 161.981,157.17 161.5,156.5 Z"/></g>
<g><path style="opacity:1" fill="#b9bab8" d="M 30.5,154.5 C 31.4916,154.328 32.1583,154.662 32.5,155.5C 31.1667,155.833 31.1667,156.167 32.5,156.5C 32.8417,157.338 33.5084,157.672 34.5,157.5C 35.1667,157.5 35.5,157.833 35.5,158.5C 35.5,158.833 35.5,159.167 35.5,159.5C 32.8021,159.155 30.8021,157.822 29.5,155.5C 30.1667,155.5 30.5,155.167 30.5,154.5 Z"/></g>
<g><path style="opacity:1" fill="#7c7d7c" d="M 160.5,157.5 C 160.833,157.5 161.167,157.5 161.5,157.5C 161.315,158.17 160.981,158.17 160.5,157.5 Z"/></g>
<g><path style="opacity:1" fill="#7c7d7c" d="M 159.5,158.5 C 159.833,158.5 160.167,158.5 160.5,158.5C 160.315,159.17 159.981,159.17 159.5,158.5 Z"/></g>
<g><path style="opacity:1" fill="#a0a09e" d="M 22.5,159.5 C 24.4044,159.738 25.7377,160.738 26.5,162.5C 24.5956,162.262 23.2623,161.262 22.5,159.5 Z"/></g>
<g><path style="opacity:1" fill="#a7a8a7" d="M 158.5,159.5 C 158.833,159.5 159.167,159.5 159.5,159.5C 159.315,160.17 158.981,160.17 158.5,159.5 Z"/></g>
<g><path style="opacity:1" fill="#525252" d="M 156.5,161.5 C 156.5,161.167 156.5,160.833 156.5,160.5C 157.167,160.5 157.833,160.5 158.5,160.5C 158.158,161.338 157.492,161.672 156.5,161.5 Z"/></g>
<g><path style="opacity:1" fill="#bdbdbc" d="M 156.5,159.5 C 156.5,159.833 156.5,160.167 156.5,160.5C 155.833,160.5 155.5,160.833 155.5,161.5C 154.167,161.833 154.167,162.167 155.5,162.5C 155.158,163.338 154.492,163.672 153.5,163.5C 153.5,162.833 153.167,162.5 152.5,162.5C 153.262,160.738 154.596,159.738 156.5,159.5 Z"/></g>
<g><path style="opacity:1" fill="#7c7d7c" d="M 155.5,161.5 C 155.833,161.5 156.167,161.5 156.5,161.5C 156.315,162.17 155.981,162.17 155.5,161.5 Z"/></g>
<g><path style="opacity:1" fill="#b8b9b6" d="M 26.5,162.5 C 28.0269,162.427 29.0269,163.094 29.5,164.5C 27.9731,164.573 26.9731,163.906 26.5,162.5 Z"/></g>
<g><path style="opacity:1" fill="#7c7d7c" d="M 152.5,163.5 C 152.833,163.5 153.167,163.5 153.5,163.5C 153.315,164.17 152.981,164.17 152.5,163.5 Z"/></g>
<g><path style="opacity:1" fill="#a7a8a7" d="M 151.5,164.5 C 151.833,164.5 152.167,164.5 152.5,164.5C 152.315,165.17 151.981,165.17 151.5,164.5 Z"/></g>
<g><path style="opacity:1" fill="#d4d8d4" d="M 29.5,164.5 C 31.0269,164.427 32.0269,165.094 32.5,166.5C 30.9731,166.573 29.9731,165.906 29.5,164.5 Z"/></g>
<g><path style="opacity:1" fill="#bfbfbd" d="M 152.5,162.5 C 152.5,162.833 152.5,163.167 152.5,163.5C 151.833,163.5 151.5,163.833 151.5,164.5C 150.508,164.328 149.842,164.662 149.5,165.5C 148.833,165.5 148.5,165.833 148.5,166.5C 147.508,166.328 146.842,166.662 146.5,167.5C 145.508,167.328 144.842,167.662 144.5,168.5C 143.508,168.328 142.842,168.662 142.5,169.5C 141.209,169.263 140.209,169.596 139.5,170.5C 138.508,170.328 137.842,170.662 137.5,171.5C 136.508,171.328 135.842,171.662 135.5,172.5C 134.209,172.263 133.209,172.596 132.5,173.5C 131.209,173.263 130.209,173.596 129.5,174.5C 128.209,174.263 127.209,174.596 126.5,175.5C 124.901,175.232 123.568,175.566 122.5,176.5C 120.585,176.216 118.919,176.549 117.5,177.5C 115.585,177.216 113.919,177.549 112.5,178.5C 110.5,178.5 108.5,178.5 106.5,178.5C 122.535,175.376 137.868,170.043 152.5,162.5 Z"/></g>
<g><path style="opacity:1" fill="#cecece" d="M 149.5,166.5 C 149.5,166.167 149.5,165.833 149.5,165.5C 150.167,165.5 150.833,165.5 151.5,165.5C 151.158,166.338 150.492,166.672 149.5,166.5 Z"/></g>
<g><path style="opacity:1" fill="#b4b3b0" d="M 35.5,159.5 C 36.1667,159.5 36.8333,159.5 37.5,159.5C 37.8417,160.338 38.5084,160.672 39.5,160.5C 39.8417,161.338 40.5084,161.672 41.5,161.5C 42.209,162.404 43.209,162.737 44.5,162.5C 44.8417,163.338 45.5084,163.672 46.5,163.5C 47.209,164.404 48.209,164.737 49.5,164.5C 50.209,165.404 51.209,165.737 52.5,165.5C 53.5676,166.434 54.901,166.768 56.5,166.5C 57.5676,167.434 58.901,167.768 60.5,167.5C 61.9187,168.451 63.5853,168.784 65.5,168.5C 66.9187,169.451 68.5853,169.784 70.5,169.5C 72.9479,170.473 75.6146,170.806 78.5,170.5C 85.5,171.833 92.5,171.833 99.5,170.5C 102.833,170.5 106.167,170.5 109.5,170.5C 88.5821,174.272 67.9155,172.772 47.5,166C 42.9901,164.582 38.9901,162.415 35.5,159.5 Z"/></g>
<g><path style="opacity:1" fill="#a7a8a7" d="M 148.5,166.5 C 148.833,166.5 149.167,166.5 149.5,166.5C 149.315,167.17 148.981,167.17 148.5,166.5 Z"/></g>
<g><path style="opacity:1" fill="#dedede" d="M 146.5,168.5 C 146.5,168.167 146.5,167.833 146.5,167.5C 147.167,167.5 147.833,167.5 148.5,167.5C 148.158,168.338 147.492,168.672 146.5,168.5 Z"/></g>
<g><path style="opacity:1" fill="#a7a8a4" d="M 138.5,160.5 C 139.167,160.5 139.833,160.5 140.5,160.5C 140.047,161.458 139.381,162.292 138.5,163C 129.175,166.914 119.509,169.414 109.5,170.5C 111.167,169.833 112.833,169.167 114.5,168.5C 116.415,168.784 118.081,168.451 119.5,167.5C 120.791,167.737 121.791,167.404 122.5,166.5C 124.099,166.768 125.432,166.434 126.5,165.5C 128.553,165.598 130.22,164.931 131.5,163.5C 132.791,163.737 133.791,163.404 134.5,162.5C 135.492,162.672 136.158,162.338 136.5,161.5C 137.492,161.672 138.158,161.338 138.5,160.5 Z"/></g>
<g><path style="opacity:1" fill="#dedede" d="M 144.5,169.5 C 144.5,169.167 144.5,168.833 144.5,168.5C 145.167,168.5 145.833,168.5 146.5,168.5C 146.158,169.338 145.492,169.672 144.5,169.5 Z"/></g>
<g><path style="opacity:1" fill="#e4e4e4" d="M 142.5,170.5 C 142.5,170.167 142.5,169.833 142.5,169.5C 143.167,169.5 143.833,169.5 144.5,169.5C 144.158,170.338 143.492,170.672 142.5,170.5 Z"/></g>
<g><path style="opacity:1" fill="#b0afaf" d="M 32.5,166.5 C 36.8469,166.889 40.5136,168.556 43.5,171.5C 39.4069,170.618 35.7403,168.951 32.5,166.5 Z"/></g>
<g><path style="opacity:1" fill="#8d8d8d" d="M 139.5,171.5 C 139.5,171.167 139.5,170.833 139.5,170.5C 140.5,170.5 141.5,170.5 142.5,170.5C 141.791,171.404 140.791,171.737 139.5,171.5 Z"/></g>
<g><path style="opacity:1" fill="#afadaa" d="M 43.5,171.5 C 48.1646,172.057 52.4979,173.39 56.5,175.5C 53.1226,175.041 49.7893,174.374 46.5,173.5C 45.5,172.833 44.5,172.167 43.5,171.5 Z"/></g>
<g><path style="opacity:1" fill="#898989" d="M 137.5,172.5 C 137.5,172.167 137.5,171.833 137.5,171.5C 138.167,171.5 138.833,171.5 139.5,171.5C 139.158,172.338 138.492,172.672 137.5,172.5 Z"/></g>
<g><path style="opacity:1" fill="#cecece" d="M 135.5,173.5 C 135.5,173.167 135.5,172.833 135.5,172.5C 136.167,172.5 136.833,172.5 137.5,172.5C 137.158,173.338 136.492,173.672 135.5,173.5 Z"/></g>
<g><path style="opacity:1" fill="#979797" d="M 46.5,173.5 C 46.5,173.833 46.5,174.167 46.5,174.5C 42.5,174.167 42.5,173.833 46.5,173.5 Z"/></g>
<g><path style="opacity:1" fill="#8d8d8d" d="M 132.5,174.5 C 132.5,174.167 132.5,173.833 132.5,173.5C 133.5,173.5 134.5,173.5 135.5,173.5C 134.791,174.404 133.791,174.737 132.5,174.5 Z"/></g>
<g><path style="opacity:1" fill="#cfcfcf" d="M 46.5,174.5 C 47.2389,174.369 47.9056,174.536 48.5,175C 47.5632,175.692 46.8966,175.525 46.5,174.5 Z"/></g>
<g><path style="opacity:1" fill="#b5b5b5" d="M 129.5,175.5 C 129.5,175.167 129.5,174.833 129.5,174.5C 130.5,174.5 131.5,174.5 132.5,174.5C 131.791,175.404 130.791,175.737 129.5,175.5 Z"/></g>
<g><path style="opacity:1" fill="#a4a4a4" d="M 126.5,176.5 C 126.5,176.167 126.5,175.833 126.5,175.5C 127.5,175.5 128.5,175.5 129.5,175.5C 128.791,176.404 127.791,176.737 126.5,176.5 Z"/></g>
<g><path style="opacity:1" fill="#a7a7a6" d="M 56.5,175.5 C 61.6075,175.044 66.2741,176.044 70.5,178.5C 68.8333,178.5 67.1667,178.5 65.5,178.5C 62.4651,177.626 59.4651,176.626 56.5,175.5 Z"/></g>
<g><path style="opacity:1" fill="#9a9a9a" d="M 122.5,177.5 C 122.5,177.167 122.5,176.833 122.5,176.5C 123.833,176.5 125.167,176.5 126.5,176.5C 125.432,177.434 124.099,177.768 122.5,177.5 Z"/></g>
<g><path style="opacity:1" fill="#929292" d="M 117.5,178.5 C 117.5,178.167 117.5,177.833 117.5,177.5C 119.167,177.5 120.833,177.5 122.5,177.5C 121.081,178.451 119.415,178.784 117.5,178.5 Z"/></g>
<g><path style="opacity:1" fill="#acacac" d="M 60.5,179.5 C 61.9187,178.549 63.5853,178.216 65.5,178.5C 65.5,178.833 65.5,179.167 65.5,179.5C 63.8333,179.5 62.1667,179.5 60.5,179.5 Z"/></g>
<g><path style="opacity:1" fill="#9f9f9f" d="M 112.5,179.5 C 112.5,179.167 112.5,178.833 112.5,178.5C 114.167,178.5 115.833,178.5 117.5,178.5C 117.5,178.833 117.5,179.167 117.5,179.5C 115.833,179.5 114.167,179.5 112.5,179.5 Z"/></g>
</svg>
